<?xml version="1.0" standalone="no"?>
<!DOCTYPE svg PUBLIC "-//W3C//DTD SVG 1.1//EN" "http://www.w3.org/Graphics/SVG/1.1/DTD/svg11.dtd" >
<!--
2013-9-30: Created.
-->
<svg>
<metadata>
Created by iconfont
</metadata>
<defs>

<font id="iconfont" horiz-adv-x="1024" >
  <font-face
    font-family="iconfont"
    font-weight="500"
    font-stretch="normal"
    units-per-em="1024"
    ascent="896"
    descent="-128"
  />
    <missing-glyph />
    
    <glyph glyph-name="x" unicode="x" horiz-adv-x="1001"
d="M281 543q-27 -1 -53 -1h-83q-18 0 -36.5 -6t-32.5 -18.5t-23 -32t-9 -45.5v-76h912v41q0 16 -0.5 30t-0.5 18q0 13 -5 29t-17 29.5t-31.5 22.5t-49.5 9h-133v-97h-438v97zM955 310v-52q0 -23 0.5 -52t0.5 -58t-10.5 -47.5t-26 -30t-33 -16t-31.5 -4.5q-14 -1 -29.5 -0.5
t-29.5 0.5h-32l-45 128h-439l-44 -128h-29h-34q-20 0 -45 1q-25 0 -41 9.5t-25.5 23t-13.5 29.5t-4 30v167h911zM163 247q-12 0 -21 -8.5t-9 -21.5t9 -21.5t21 -8.5q13 0 22 8.5t9 21.5t-9 21.5t-22 8.5zM316 123q-8 -26 -14 -48q-5 -19 -10.5 -37t-7.5 -25t-3 -15t1 -14.5
t9.5 -10.5t21.5 -4h37h67h81h80h64h36q23 0 34 12t2 38q-5 13 -9.5 30.5t-9.5 34.5q-5 19 -11 39h-368zM336 498v228q0 11 2.5 23t10 21.5t20.5 15.5t34 6h188q31 0 51.5 -14.5t20.5 -52.5v-227h-327z" />
    

    
    <glyph glyph-name="tuwenxiangqing" unicode="&#58880;" d="M259.072 592.896q30.72 0 52.736-22.016t22.016-53.76q0-30.72-22.016-52.736t-52.736-22.016q-31.744 0-53.248 22.016t-21.504 52.736q0 31.744 21.504 53.76t53.248 22.016zM864.256 838.656q43.008 0 69.12-28.672t26.112-65.536l0-550.912q0-23.552-16.896-39.936t-40.448-16.384l-70.656 0 0 123.904 44.032 0q11.264 0 19.456 8.192t8.192 20.48q0 11.264-8.192 19.456t-19.456 8.192l-44.032 0 0 79.872 44.032 0q11.264 0 19.456 8.192t8.192 19.456-8.192 19.968-19.456 8.704l-44.032 0 0 72.704 44.032 0q11.264 0 19.456 8.192t8.192 20.48q0 11.264-8.192 19.456t-19.456 8.192l-44.032 0 0 86.016q0 57.344-26.624 80.896t-90.112 23.552l-394.24 0 0 9.216q0 23.552 16.896 39.936t40.448 16.384l486.4 0zM692.224 711.68q39.936 0 57.856-23.04t17.92-59.904l0-565.248q0-23.552-19.456-43.52t-48.128-19.968l-572.416 0q-24.576 0-44.032 20.48t-19.456 48.128l0 575.488q0 29.696 16.384 48.64t43.008 18.944l568.32 0zM703.488 604.16q0 17.408-10.752 30.208t-34.304 12.8l-488.448 0q-4.096 0-11.264-1.536t-14.336-5.12-12.288-9.728-5.12-15.36l0-274.432q8.192-9.216 23.04-22.016t34.816-23.552 44.544-18.432 53.248-7.68q43.008 0 75.264 13.824t59.904 34.816 54.272 45.056 58.88 45.568 73.728 36.352 98.816 16.896l0 142.336z"  horiz-adv-x="1024" />

    
    <glyph glyph-name="dayin" unicode="&#58881;" d="M844.7488 634.1243l-55.614464 0L789.134336 828.771328 233.001984 828.771328l0-194.646016-55.61344 0c-61.3427 0-111.2269-49.8831-111.2269-111.2259l0-361.48736 166.839296 0 0-222.452736 556.133376 0L789.134316 161.412096l166.84032 0L955.974636 522.898432C955.9747 584.2422 906.0905 634.1243 844.7488 634.1243zM288.6154 773.1579l444.906496 0 0-139.032576L288.615424 634.125324 288.615424 773.157888zM733.5219-5.4272 288.615424-5.4272 288.615424 244.832256l444.906496 0L733.52192-5.4272zM900.3602 217.0255 789.134336 217.0255l0 83.419136L233.001984 300.444636l0-83.419136L121.775104 217.0255 121.775104 522.898432c0 30.6575 24.9549 55.6134 55.6134 55.6134l667.360256 0c30.6565 0 55.6124-24.9559 55.6124-55.6134L900.36116 217.025536zM511.0671 495.0927 260.808704 495.0927c-15.3702 0-27.8067-12.4375-27.8067-27.8067 0-15.3692 12.4375-27.8067 27.8067-27.8067l250.259456 0c15.3692 0 27.8067 12.4375 27.8067 27.8067C538.8749 482.6552 526.4364 495.0927 511.0671 495.0927z"  horiz-adv-x="1024" />

    
    <glyph glyph-name="iconfontsousuo" unicode="&#58922;" d="M388.9 701c-97.9 0-189.9-52.9-240-138.1-4.4-7.5-2-17.2 5.5-21.7 2.5-1.5 5.3-2.2 8-2.2 5.3 0 10.5 2.8 13.5 7.7 44.5 75.7 126.1 122.7 213.1 122.7 8.6 0 15.6 7.1 15.6 15.8C404.6 693.9 397.6 701 388.9 701zM136.1 495.3c-8.4 2-16.8-3.3-18.8-11.8-4.7-20.2-7.3-32.7-7.3-55.1 0-8.7 7-15.8 15.6-15.8 8.6 0 15.6 7.1 15.6 15.8 0 19 2.1 29 6.5 47.9C149.7 484.8 144.5 493.3 136.1 495.3zM990.8-44.5 738.3 210.7c-6.1 6.2-12.2 10.6-18.2 13.9 33 57.2 52 123.7 52 194.6 0 213.5-171.9 387.3-383.2 387.3C177.6 806.4 5.7 632.7 5.7 419.1s171.9-387.3 383.2-387.3c75.2 0 145.4 22 204.7 60 3.2-5.3 7.2-10.5 12-15.3l252.5-255.1c17.7-17.9 41.3-27.8 66.4-27.8 25.1 0 48.6 9.9 66.4 27.8 17.7 17.9 27.5 41.7 27.5 67.1C1018.3-86.2 1008.6-62.4 990.8-44.5zM388.9 95.1c-176.8 0-320.7 145.4-320.7 324 0 178.7 143.9 324 320.7 324s320.7-145.4 320.7-324C709.6 240.4 565.7 95.1 388.9 95.1zM946.6-133.9c-11.8-11.9-32.4-11.9-44.3 0L649.9 121.2c-2.2 2.2-3 3.7-3.1 3.7 0 0 0 0 0 0 0 0.7 0.9 7.2 18.8 25.2 17.9 18 24.3 18.9 24.5 19 0.4-0.1 1.9-1 4.1-3.2l252.5-255.1c5.9-6 9.2-13.9 9.2-22.4C955.7-120 952.5-127.9 946.6-133.9z"  horiz-adv-x="1024" />

    
    <glyph glyph-name="icon3" unicode="&#58914;" d="M284.249891 301.183965c0-31.396057-63.626109-56.847729-142.112672-56.847729-78.490655 0-142.116765 25.451672-142.116765 56.847729 0 31.392988 63.626109 56.844659 142.116765 56.844659C220.623781 358.027601 284.249891 332.576953 284.249891 301.183965zM653.748363 159.071294c0-31.398104-63.626109-56.848753-142.113695-56.848753-78.489632 0-142.115742 25.450648-142.115742 56.848753 0 31.391964 63.626109 56.844659 142.115742 56.844659C590.123277 215.915953 653.748363 190.463258 653.748363 159.071294zM1023.243765 16.958622c0-31.398104-63.626109-56.848753-142.112672-56.848753-78.490655 0-142.116765 25.450648-142.116765 56.848753 0 31.391964 63.626109 56.844659 142.116765 56.844659C959.618679 73.803281 1023.243765 48.350586 1023.243765 16.958622zM142.137219 187.491577c-78.490655 0-142.116765 25.451672-142.116765 56.844659l0-85.268012 0 0c0.004093-31.394011 63.628156-56.844659 142.116765-56.844659 78.484515 0 142.108578 25.450648 142.112672 56.844659l0 0 0 85.268012C284.249891 212.943248 220.623781 187.491577 142.137219 187.491577zM142.137219 45.374812c-78.490655 0-142.116765 25.451672-142.116765 56.848753l0-85.268012 0 0c0.004093-31.394011 63.628156-56.844659 142.116765-56.844659 78.484515 0 142.108578 25.450648 142.112672 56.844659l0 0 0 85.268012C284.249891 70.826484 220.623781 45.374812 142.137219 45.374812zM142.137219-96.73786c-78.490655 0-142.116765 25.451672-142.116765 56.848753l0-85.268012 0 0c0.004093-31.394011 63.628156-56.844659 142.116765-56.844659 78.484515 0 142.108578 25.450648 142.112672 56.844659l0 0 0 85.268012C284.249891-71.286188 220.623781-96.73786 142.137219-96.73786zM511.634668 45.374812c-78.489632 0-142.115742 25.451672-142.115742 56.848753l0-85.268012 0 0c0.004093-31.394011 63.628156-56.844659 142.115742-56.844659 78.485539 0 142.109602 25.450648 142.113695 56.844659l0 0 0 85.268012C653.748363 70.826484 590.123277 45.374812 511.634668 45.374812zM511.634668-96.73786c-78.489632 0-142.115742 25.451672-142.115742 56.848753l0-85.268012 0 0c0.004093-31.394011 63.628156-56.844659 142.115742-56.844659 78.485539 0 142.109602 25.450648 142.113695 56.844659l0 0 0 85.268012C653.748363-71.286188 590.123277-96.73786 511.634668-96.73786zM881.131093-96.73786c-78.490655 0-142.116765 25.451672-142.116765 56.848753l0-85.268012 0 0c0.004093-31.394011 63.628156-56.844659 142.116765-56.844659 78.484515 0 142.108578 25.450648 142.112672 56.844659l0 0 0 85.268012C1023.243765-71.286188 959.618679-96.73786 881.131093-96.73786zM795.861035 500.140273 511.632621 784.370733 227.404208 500.140273 312.672221 414.872261 454.788985 556.990049 454.788985 272.759589 568.479327 272.759589 568.479327 556.988002 710.591999 414.872261Z"  horiz-adv-x="1024" />

    
    <glyph glyph-name="iconfonticonfontjixieqimo" unicode="&#58924;" d="M580.193-126.543l-136.738 0c-14.287 0-26.843 9.471-30.769 23.208l-41.943 146.79-133.479-74.152c-12.494-6.938-28.07-4.755-38.171 5.35l-96.688 96.719c-10.1 10.104-12.28 25.677-5.342 38.165l74.152 133.469-146.81 41.953c-13.737 3.926-23.208 16.481-23.208 30.769l0 136.75c0 14.288 9.473 26.845 23.211 30.77l146.795 41.932-74.142 133.466c-6.938 12.489-4.756 28.065 5.346 38.168l96.688 96.688c10.105 10.104 25.683 12.283 38.169 5.346l133.478-74.158 41.944 146.802c3.925 13.738 16.481 23.209 30.769 23.209l136.738 0c14.287 0 26.844-9.471 30.769-23.209l41.944-146.801 133.477 74.157c12.488 6.938 28.064 4.758 38.167-5.344l96.701-96.689c10.104-10.103 12.286-25.679 5.348-38.169l-74.146-133.466 146.799-41.932c13.738-3.925 23.211-16.481 23.211-30.77l0-136.75c0-14.287-9.471-26.843-23.208-30.769l-146.813-41.953 74.156-133.468c6.938-12.489 4.758-28.064-5.344-38.167l-96.701-96.719c-10.101-10.104-25.676-12.288-38.169-5.349l-133.479 74.152-41.943-146.79C607.035-117.072 594.48-126.543 580.193-126.543zM467.591-62.543l88.465 0 46.386 162.337c2.683 9.387 9.503 17.036 18.522 20.772 9.02 3.735 19.252 3.151 27.786-1.591l147.611-82.003 62.567 62.579-82.01 147.604c-4.741 8.534-5.328 18.767-1.592 27.787 3.735 9.02 11.385 15.841 20.772 18.523l162.362 46.396 0 88.474-162.349 46.374c-9.388 2.682-17.038 9.502-20.774 18.522-3.737 9.021-3.151 19.253 1.59 27.787l81.999 147.603-62.562 62.555-147.613-82.012c-8.533-4.741-18.767-5.329-27.786-1.592-9.021 3.736-15.842 11.386-18.523 20.773l-46.388 162.351-88.463 0-46.388-162.351c-2.682-9.388-9.503-17.037-18.523-20.773-9.019-3.734-19.252-3.149-27.786 1.592l-147.612 82.012-62.554-62.554 81.996-147.604c4.741-8.535 5.326-18.768 1.59-27.787-3.736-9.021-11.387-15.841-20.774-18.522l-162.344-46.373 0-88.475 162.358-46.396c9.388-2.683 17.037-9.504 20.772-18.523 3.735-9.021 3.149-19.252-1.592-27.786l-82.008-147.606 62.559-62.577 147.61 82.002c8.534 4.74 18.767 5.326 27.786 1.591 9.02-3.736 15.84-11.386 18.522-20.772L467.591-62.543zM511.829 173.477c-116.141 0-210.627 94.463-210.627 210.573 0 116.154 94.486 210.652 210.627 210.652 56.258 0 109.147-21.912 148.926-61.7 39.776-39.786 61.683-92.685 61.683-148.952 0-56.249-21.907-109.13-61.688-148.901C620.973 195.379 568.085 173.477 511.829 173.477zM511.829 530.702c-80.851 0-146.627-65.788-146.627-146.652 0-80.82 65.776-146.573 146.627-146.573 80.84 0 146.608 65.753 146.608 146.573C658.438 464.914 592.669 530.702 511.829 530.702z"  horiz-adv-x="1024" />

    
    <glyph glyph-name="cc-phone-handset" unicode="&#59010;" d="M778.744-74.002c-79.086 0-163.144 22.408-250.031 66.616-80.046 40.765-159.092 99.099-228.628 168.725-69.582 69.671-127.829 148.843-168.55 228.914-44.12 86.867-66.529 170.991-66.529 250.054 0 51.251 47.783 100.756 68.273 119.657 29.512 27.18 75.949 58.92 109.692 58.92 16.782 0 36.448-10.987 61.909-34.55 19.01-17.593 40.372-41.442 61.735-68.929 12.904-16.611 77.257-101.388 77.257-142.066 0-33.353-37.756-56.566-77.652-81.068-15.435-9.461-31.344-19.294-42.901-28.537-12.334-9.853-14.514-15.086-14.862-16.238 42.377-105.663 171.863-235.149 277.497-277.482 0.918 0.306 6.103 2.398 16.181 14.867 9.24 11.509 19.049 27.511 28.55 42.9 24.502 39.936 47.696 77.649 81.055 77.649 40.67 0 125.425-64.309 142.08-77.212 27.468-21.407 51.318-42.814 68.884-61.78 23.591-25.417 34.578-45.124 34.578-61.909 0-33.745-31.74-80.306-58.905-109.952-18.922-20.622-68.45-68.624-119.672-68.624l0.039 0.044zM242.751 774.239c-11.986-0.217-44.161-14.866-79.126-47.105-33.223-30.631-53.888-63.872-53.888-86.829 0-300.388 368.926-669.663 669.007-669.663 22.934 0 56.155 20.751 86.76 54.147 32.309 35.183 46.96 67.489 47.174 79.522-1.435 8.46-24.938 41.462-89.155 90.946-55.242 42.464-99.973 65.309-111.523 65.57-0.833-0.218-5.802-2.137-15.918-14.997-8.807-11.205-18.224-26.508-27.379-41.332-25.026-40.677-48.657-79.129-82.966-79.129-5.538 0-10.946 1.089-16.176 3.181-117.233 46.867-255.787 185.467-302.658 302.638-5.621 14.058-6.493 36.12 21.149 61.212 14.737 13.341 35.093 25.854 54.846 37.993 14.824 9.113 30.17 18.529 41.331 27.359 12.858 10.135 14.777 15.149 14.998 15.934-0.309 11.534-23.107 56.308-65.572 111.524-49.486 64.243-82.487 87.675-90.945 89.158l0.041-0.131z"  horiz-adv-x="1024" />

    
    <glyph glyph-name="14" unicode="&#59075;" d="M227.555556 634.311111l0 79.644444c0 18.887111 15.246222 34.133333 34.133333 34.133333s34.133333-15.246222 34.133333-34.133333l0-79.644444c0-18.887111-15.246222-34.133333-34.133333-34.133333S227.555556 615.424 227.555556 634.311111zM591.644444 600.177778c18.887111 0 34.133333 15.246222 34.133333 34.133333l0 79.644444c0 18.887111-15.246222 34.133333-34.133333 34.133333s-34.133333-15.246222-34.133333-34.133333l0-79.644444C557.511111 615.424 572.757333 600.177778 591.644444 600.177778zM796.444444 224.711111l-34.133333 0 0 79.644444c0 12.561067-10.194489 22.755556-22.755556 22.755556s-22.755556-10.194489-22.755556-22.755556l0-102.4c0-12.561067 10.194489-22.755556 22.755556-22.755556l56.888889 0c12.561067 0 22.755556 10.194489 22.755556 22.755556S809.005511 224.711111 796.444444 224.711111zM932.977778 207.644444c0-106.837333-86.584889-193.422222-193.422222-193.422222-76.117333 0-141.880889 44.145778-173.397333 108.088889L159.288889 122.311111c-31.402667 0-56.888889 25.486222-56.888889 56.888889L102.4 600.177778c0 31.402667 25.486222 56.888889 56.888889 56.888889l45.511111 0 0-22.755556c0-31.402667 25.486222-56.888889 56.888889-56.888889s56.888889 25.486222 56.888889 56.888889l0 22.755556 216.177778 0 0-22.755556c0-31.402667 25.486222-56.888889 56.888889-56.888889s56.888889 25.486222 56.888889 56.888889l0 22.755556 45.511111 0c31.402667 0 56.888889-25.486222 56.888889-56.888889l0-199.68C852.423111 394.581333 932.977778 310.613333 932.977778 207.644444zM524.288 495.502222 339.399111 495.502222l0-51.086222 128.341333 0c-25.713778-31.175111-46.535111-65.536-62.464-102.855111-15.815111-37.432889-25.258667-76.344889-28.444444-116.849778l58.823111 0c0.227556 18.090667 2.389333 37.546667 6.371556 58.368 3.982222 20.935111 9.671111 41.528889 17.066667 61.895111 7.395556 20.366222 16.497778 39.594667 27.420444 57.685333 11.036444 18.090667 23.552 33.223111 37.774222 45.624889L524.288 495.502222zM887.466667 207.644444c0 81.578667-66.332444 147.911111-147.911111 147.911111s-147.911111-66.332444-147.911111-147.911111c0-81.578667 66.332444-147.911111 147.911111-147.911111S887.466667 126.065778 887.466667 207.644444z"  horiz-adv-x="1024" />

    
    <glyph glyph-name="tuikuanshouhou" unicode="&#58899;" d="M848.31521 378.702344c0-7.178493 5.820566-12.999059 13.013385-12.999059s12.999059 5.820566 12.999059 12.999059c0 147.011238-98.94143 276.718369-240.564961 315.443345-6.844895 1.849114-14.068414-2.180666-15.974833-9.100262-1.892093-6.948249 2.181689-14.097066 9.114588-15.989159C757.273704 633.408373 848.31521 514.028449 848.31521 378.702344zM547.330158 679.701722c5.633301 0 11.236925-0.158612 16.812921-0.462534 0.245593-0.014326 0.490164-0.014326 0.722454-0.014326 6.875594 0 12.609179 5.359055 12.971429 12.291954 0.404206 7.164167-5.084808 13.302981-12.249999 13.678534-6.066159 0.332575-12.132318 0.505513-18.256806 0.505513-7.164167 0-13.000082-5.806239-13.000082-13.000082C534.330076 685.522288 540.165991 679.701722 547.330158 679.701722zM536.410458 809.3802c-233.704716 0-423.830915-190.134385-423.830915-423.845241 0-16.799618 1.017166-33.772174 2.989077-50.501184L84.976882 323.989231c-9.359158-3.365654-15.974833-11.136641-17.679661-20.785396-1.9934-11.006681 2.397606-22.560832 11.598152-30.347169l88.787162-72.378447c5.589298-4.709255 11.82942-7.192819 18.055215-7.192819 12.537548 0 22.387893 9.591449 24.988114 24.121374l23.053042 110.728894c1.747807 9.735735-0.924045 19.990287-7.14984 27.429723-7.554046 9.041934-19.630083 12.449543-30.505781 8.549723l-23.173792-8.366551c-0.800225 9.925047-1.208525 19.891026-1.208525 29.786397 0 201.088878 163.592892 364.68177 364.668467 364.68177 201.074551 0 364.667443-163.592892 364.667443-364.68177 0-201.090924-163.592892-364.683816-364.667443-364.683816-88.166015 0-173.270299 31.892361-239.612263 89.799212-12.320607 10.738575-30.996968 9.467629-41.742706-2.837628s-9.474792-30.988782 2.831488-41.735543c77.131705-67.316152 176.043459-104.387465 278.524504-104.387465 233.703693 0 423.830915 190.133362 423.830915 423.845241C960.241372 619.245815 770.114151 809.3802 536.410458 809.3802zM406.385079 298.336992c-8.117888 0-14.2127-1.834788-18.256806-5.446036-4.058432-3.6399-6.080485-10.153244-6.080485-19.528775 0-17.072841 8.53642-25.608238 25.609261-25.608238l100.530624 0 0-84.527139c0-11.526521 1.819438-19.658735 5.431709-24.337291 3.625574-4.709255 10.788717-7.049556 21.463848-7.049556s17.708314 2.340301 21.145599 7.049556c3.37998 4.678556 5.113461 12.811794 5.113461 24.337291L561.34229 247.75292l101.801571 0c17.086144 0 25.622564 8.30413 25.622564 24.959461 0 17.072841-8.53642 25.624611-25.622564 25.624611l-101.801571 0L561.34229 338.663442l101.801571 0c17.086144 0 25.622564 8.320503 25.622564 24.974811 0 17.071817-8.53642 25.622564-25.622564 25.622564l-74.271564 0 92.845595 155.590638c4.693906 8.117888 7.048533 15.050788 7.048533 20.813025 0 5.777587-3.437286 10.761088-10.254551 15.050788-6.41306 4.275373-12.913101 6.398734-19.527752 6.398734-6.615675 0-13.130042-5.344728-19.513426-16.003486l-104.387465-176.101787L430.709067 571.111538c-5.979178 10.225899-12.710486 15.353686-20.177552 15.353686-7.468089 0-13.967106-2.12336-19.514449-6.398734-5.54632-3.827165-8.333806-8.954953-8.333806-15.368012 0-6.398734 1.920746-13.014408 5.763261-19.846l92.845595-155.590638-74.907037 0c-8.117888 0-14.2127-1.834788-18.256806-5.445012-4.058432-3.6399-6.080485-10.154267-6.080485-19.527752 0-17.08819 8.53642-25.624611 25.609261-25.624611l100.530624 0 0-40.326451L406.385079 298.338015z"  horiz-adv-x="1024" />

    
    <glyph glyph-name="bussinessman" unicode="&#59174;" d="M496.64-60.416l-106.496 100.352L429.056 261.12l130.048 0 29.696-222.208L496.64-60.416zM433.152 60.416l61.44-59.392 55.296 57.344-21.504 161.792-70.656 0L433.152 60.416zM642.048 329.728c92.16 51.2 153.6 147.456 153.6 260.096 0 163.84-132.096 296.96-293.888 296.96s-293.888-132.096-293.888-296.96 132.096-296.96 293.888-296.96c4.096 0 6.144 0 10.24 0l2.048 0c236.544 0 441.344-168.96 458.752-360.448L486.4-67.584 53.248-67.584c10.24 128 94.208 240.64 222.208 307.2 12.288 6.144 17.408 21.504 10.24 33.792s-21.504 17.408-33.792 10.24C96.256 207.872 0 65.536 0-93.184l0-25.6 25.6 0 460.8 0 512 0 25.6 0 0 25.6C1024 103.424 858.112 278.528 642.048 329.728zM256 589.824C256 723.968 364.544 833.536 499.712 833.536s243.712-108.544 243.712-242.688S633.856 347.136 499.712 347.136 256 455.68 256 589.824z"  horiz-adv-x="1024" />

    
    <glyph glyph-name="tuichu" unicode="&#59003;" d="M887.001194 312.652135 886.692295 312.652135 883.673738 315.525621 883.673738 400.690199 474.870904 400.690199 474.870904 463.84794 883.673738 463.84794 883.673738 551.696148 1004.630382 436.553078 1004.630382 436.220065 887.001194 312.652135ZM670.468514 835.521678 168.062845 835.521678 360.76209 740.080762C386.375425 727.394859 407.18035 696.288332 407.18035 670.62294L410.201204 104.395033C412.409429 104.908334 414.707222 105.188524 417.072001 105.188524L671.234063 105.188524 671.234063 304.613877 731.712385 304.613877 731.712385 74.949363C731.712385 58.248925 718.173662 44.710202 701.473224 44.710202L417.072001 44.710202C414.819375 44.710202 412.62761 44.963982 410.515845 45.431349L411.390866-118.611889C411.390866-127.22048 404.42897-130.503535 395.846789-125.947756L57.030771 62.014275C36.204792 73.069942 19.37536 99.164424 19.407513 120.312698L20.522917 857.494448C19.777273 860.122958 19.369618 862.893478 19.369618 865.760839 19.369618 869.030113 19.894784 872.174986 20.854399 875.123878 22.351046 886.355239 29.313709 893.146036 39.134546 894.134741 42.398462 895.340097 45.926109 896 49.608779 896L700.707675 896C717.408113 896 730.946836 882.46166 730.946836 865.760839 730.946836 863.662471 730.732483 861.614246 730.325594 859.636452 730.732483 857.658658 730.946836 855.610433 730.946836 853.512065L730.946836 563.752003 670.468514 563.752003 670.468514 835.521678Z"  horiz-adv-x="1024" />

    
    <glyph glyph-name="xingmingyonghumingnicheng" unicode="&#58915;" d="M652.3 333.3C741.6 382.7 802 477.8 802 587c0 160.2-129.8 290-290 290-160.2 0-290-129.8-290-290 0-109.2 60.4-204.3 149.7-253.7C184 273.8 48 98.3 48-109l58 0c0 224.2 181.8 406 406 406 224.2 0 406-181.8 406-406l58 0C976 98.3 840 273.8 652.3 333.3zM280 587c0 128.1 103.9 232 232 232 128.1 0 232-103.9 232-232 0-128.1-103.9-232-232-232C383.9 355 280 458.9 280 587z"  horiz-adv-x="1024" />

    
    <glyph glyph-name="tianjia" unicode="&#58957;" d="M509.72826 803.146219c-231.475955 0-419.148265-187.67231-419.148265-419.148265 0-231.470839 187.67231-419.143149 419.148265-419.143149 231.498468 0 419.143149 187.67231 419.143149 419.143149C928.871409 615.473909 741.226728 803.146219 509.72826 803.146219L509.72826 803.146219zM745.847979 357.804385 535.921829 357.804385 535.921829 147.878235c0-14.278191-11.736299-25.846668-26.193569-25.846668-14.474666 0-26.198685 11.568477-26.198685 25.846668L483.529575 357.804385 273.603425 357.804385c-14.278191 0-25.841551 11.736299-25.841551 26.193569 0 14.474666 11.592013 26.198685 25.841551 26.198685l209.92615 0L483.529575 620.150418c0 14.250562 11.724019 25.813922 26.198685 25.813922 14.45727 0 26.193569-11.56336 26.193569-25.813922l0-209.953779 209.92615 0c14.305821 0 25.846668-11.724019 25.846668-26.198685C771.694647 369.540683 760.1538 357.804385 745.847979 357.804385L745.847979 357.804385zM745.847979 357.804385"  horiz-adv-x="1024" />

    
    <glyph glyph-name="chartline" unicode="&#58947;" d="M921.6 716.8c0-31.744-19.456-59.392-47.104-70.656l0-671.232-772.608 0 216.064 344.576c-6.656 11.776-10.752 24.576-10.752 38.912 0 42.496 34.304 76.8 76.8 76.8s76.8-34.304 76.8-76.8c0-6.656-1.024-12.8-2.56-18.944l73.728-32.256c13.824 15.36 34.304 25.6 56.832 25.6 9.216 0 17.92-2.048 26.112-4.608l183.296 328.192c-18.432 13.824-30.208 35.84-30.208 60.416 0 42.496 34.304 76.8 76.8 76.8 9.728 0 18.432-2.048 27.136-5.12l2.56 4.608 0-5.632c27.648-11.264 47.104-38.912 47.104-70.656zM823.296 26.112l0 570.368-168.448-301.568c6.656-11.776 10.752-24.576 10.752-38.912 0-42.496-34.304-76.8-76.8-76.8s-76.8 34.304-76.8 76.8l0.512 3.584-83.456 36.864c-12.8-9.216-28.16-14.848-45.056-14.848-9.216 0-17.92 2.048-26.112 5.12l-163.84-260.608 629.248 0z"  horiz-adv-x="1024" />

    
    <glyph glyph-name="yue" unicode="&#58901;" d="M931.886 798.278c-17.149 0-31.18 14.038-31.18 31.187v6.375c0 17.156-14.036 31.186-31.188 31.186h-6.41c-17.154 0-31.188-14.032-31.188-31.186v-6.375c0-17.151-14.032-31.187-31.185-31.187h-350.475c-17.151 0-31.182 14.038-31.182 31.187v6.375c0 17.156-14.038 31.186-31.181 31.186h-6.419c-17.146 0-31.181-14.032-31.181-31.186v-6.375c0-17.151-14.032-31.187-31.186-31.187h-143.902c-17.156 0-31.186-14.031-31.186-31.193v-831.513c0-17.156 14.032-31.186 31.186-31.186h900.274c17.151 0 31.183 14.032 31.183 31.186v831.525c0 17.151-14.032 31.181-31.183 31.181h-143.599zM1037.93 4.282c0-17.146-14.032-31.186-31.173-31.186h-762.789c-17.151 0-31.186 14.042-31.186 31.186v694.038c0 17.156 14.036 31.186 31.186 31.186h75.154c17.151 0 31.186-14.032 31.186-31.186v-75.183c0-17.146 14.032-31.186 31.174-31.186h6.419c17.151 0 31.181 14.042 31.181 31.186v75.183c0 17.156 14.032 31.186 31.191 31.186h350.469c17.149 0 31.18-14.032 31.18-31.186v-75.183c0-17.146 14.038-31.186 31.188-31.186h6.41c17.158 0 31.188 14.042 31.188 31.186v75.183c0 17.156 14.032 31.186 31.18 31.186h74.869c17.145 0 31.18-14.032 31.18-31.186v-694.038h-0.005zM581.173 502.946h124.202c34.395 0 57.949 1.258 70.694 3.824-3.821-17.856-5.105-39.5-3.821-64.972v-299.996c0-15.299-4.478-25.476-13.374-30.578-8.93-5.074-33.143-10.189-72.607-15.287-1.286 19.108-7.644 37.557-19.108 55.406 42.034-10.211 63.056-8.295 63.056 5.734v93.632h-185.344c-11.469-62.422-40.123-115.937-85.982-160.522-16.569 14.043-33.772 22.303-51.593 24.842 63.679 35.652 96.164 100.624 97.453 194.915v105.102c0 29.289-0.666 49.026-1.916 59.236 0 12.72-0.659 23.559-1.91 32.487 7.645-1.285 16.533-1.915 26.753-1.915 14-1.286 31.827-1.909 53.498-1.909v0zM546.786 468.553v-72.607h183.434v72.607h-183.434zM546.786 359.63v-72.607h183.434v72.607h-183.434zM546.786 359.63z"  horiz-adv-x="1320" />

    
    <glyph glyph-name="shangpinguanli" unicode="&#58970;" d="M127.494999-128.000634c-63.642354 0-115.42261 54.708129-115.42261 142.881206L12.087252 820.757125c0 34.911545 30.685697 63.749362 68.403244 63.749362l873.482188 0c37.715565 0 68.401262-24.182945 68.401262-63.749362 0-25.550277 0-805.876554 0-805.876554 0-88.173076-51.775302-142.881206-115.41072-142.881206L127.494999-128.000634zM86.782203-6.050502c0-26.048659 18.260814-47.2423 40.712796-47.2423l779.469218 0c22.442074 0 40.702888 21.193641 40.702888 47.2423l0 86.820607L86.782203 80.770105 86.782203-6.050502zM947.667104 157.950033 947.667104 809.781812 86.797065 809.781812l0-651.831779L947.667104 157.950033 947.667104 157.950033zM518.360629 378.138982c-171.278108 0-272.568651 145.726841-291.139592 315.85758-1.171149 10.752379 2.346262 21.596905 9.632753 29.744418 7.411334 8.243623 18.000228 12.984697 29.065706 12.984697 19.687594 0 36.122327-14.685935 38.247636-34.158521 14.223222-130.862558 82.446137-246.978742 214.192506-246.978742 131.788975 0 198.871456 116.116184 213.099632 246.978742 2.125309 19.471596 18.55806 34.158521 38.250608 34.158521 11.062506 0 21.644464-4.741074 29.040936-12.984697 7.307298-8.146522 10.819755-18.99402 9.650587-29.744418C789.799745 523.865823 689.6427 378.138982 518.360629 378.138982z"  horiz-adv-x="1024" />

    
    <glyph glyph-name="benzhou" unicode="&#58909;" d="M623.920534 459.750241l-135.403876-330.911642-45.358047 0L571.857784 436.289923 398.91699 436.289923l0 38.654368 225.003544 0L623.920534 459.750241zM796.559453 768.022257c-15.954367 0-29.007661 13.053294-29.007661 29.007661l0 5.930059c0 15.953344-13.053294 29.006637-29.007661 29.006637l-5.961782 0c-15.954367 0-29.007661-13.053294-29.007661-29.006637l0-5.930059c0-15.954367-13.053294-29.007661-29.007661-29.007661l-326.004889 0c-15.954367 0-29.007661 13.053294-29.007661 29.007661l0 5.930059c0 15.953344-13.053294 29.006637-29.007661 29.006637l-5.961782 0c-15.954367 0-29.007661-13.053294-29.007661-29.006637l0-5.930059c0-15.954367-13.053294-29.007661-29.007661-29.007661L92.708983 768.022257c-15.954367 0-29.007661-13.053294-29.007661-29.007661l0-773.423011c0-15.954367 13.053294-29.007661 29.007661-29.007661l837.421604 0c15.954367 0 29.007661 13.053294 29.007661 29.007661L959.138248 739.015619c0 15.954367-13.053294 29.007661-29.007661 29.007661L796.559453 768.02328zM895.201054 29.502174c0-15.954367-13.053294-29.007661-29.007661-29.007661L156.665621 0.494513c-15.954367 0-29.007661 13.053294-29.007661 29.007661L127.65796 675.051819c0 15.953344 13.053294 29.006637 29.007661 29.006637l69.90614 0c15.954367 0 29.007661-13.053294 29.007661-29.006637l0-69.930699c0-15.953344 13.053294-29.006637 29.007661-29.006637l5.961782 0c15.954367 0 29.007661 13.053294 29.007661 29.006637l0 69.930699c0 15.953344 13.053294 29.006637 29.007661 29.006637l326.004889 0c15.954367 0 29.007661-13.053294 29.007661-29.006637l0-69.930699c0-15.953344 13.053294-29.006637 29.007661-29.006637l5.961782 0c15.954367 0 29.007661 13.053294 29.007661 29.006637l0 69.930699c0 15.953344 13.053294 29.006637 29.007661 29.006637l69.634963 0c15.954367 0 29.007661-13.053294 29.007661-29.006637L895.204124 29.502174z"  horiz-adv-x="1024" />

    
    <glyph glyph-name="icon-arrow-top2" unicode="&#58981;" d="M942.936 148.755c29.315 28.497 29.315 74.739 0 103.307l-378.011 367.236c-29.367 28.483-76.982 28.483-106.291 0l-377.997-367.236c-29.367-28.562-29.367-74.806 0-103.307 29.325-28.546 76.929-28.546 106.304 0l324.841 315.6 324.803-315.599c29.367-28.545 76.973-28.544 106.356 0v0z"  horiz-adv-x="1024" />

    
    <glyph glyph-name="lishijilu" unicode="&#59013;" d="M144.050432 584.879872C150.72016 597.85472 159.483744 614.342432 165.972256 624.519264 245.506592 749.264288 385.091328 832 544 832 791.423552 832 992 631.423552 992 384 992 136.576448 791.423552-64 544-64 383.12528-64 242.055648 20.795584 163.047904 148.129984 152.260384 165.515936 148.608608 174.122976 148.608608 174.122976 140.526912 189.92176 121.00352 197.112768 104.646144 190.394048 88.174688 183.628512 81.331744 165.509696 89.107264 149.819936 89.107264 149.819936 94.27984 138.063936 105.745536 119.133184 195.465184-29.000928 358.17136-128 544-128 826.769792-128 1056 101.230208 1056 384 1056 666.769792 826.769792 896 544 896 360.797344 896 200.068256 799.779104 109.592672 655.117184 105.015264 647.798368 99.386304 637.55312 94.010208 627.34224L76.719904 736.50896C73.980704 753.80352 57.73136 765.601568 40.154144 762.817632 22.698592 760.052928 10.815968 743.493056 13.539136 726.299552L38.593024 568.115552C44.117152 533.237632 76.620576 509.402272 111.74736 514.965792L269.931392 540.01968C287.335072 542.77616 299.2216 559.03952 296.437632 576.616768 293.67296 594.072288 277.178208 605.965248 260.117184 603.26304L144.050432 584.879872 144.050432 584.879872 144.050432 584.879872ZM544 672.147264C544 689.73904 529.79632 704 512 704 494.32688 704 480 689.415648 480 671.920864L480 384.27296C480 348.776 508.8624 320 544.27296 320L831.920864 320C849.637664 320 864 334.20368 864 352 864 369.67312 849.418752 384 832.147264 384L575.852736 384C558.26096 384 544 398.581248 544 415.852736L544 672.147264 544 672.147264 544 672.147264Z"  horiz-adv-x="1056" />

    
    <glyph glyph-name="quanfenleib" unicode="&#59087;" d="M293.227368 473.892333c-89.831958 0-162.9083 73.076342-162.9083 162.89909S203.39541 799.690514 293.227368 799.690514c89.822748 0 162.89909-73.076342 162.89909-162.89909S383.050116 473.892333 293.227368 473.892333zM293.227368 742.972744c-58.555627 0-106.189508-47.634904-106.189508-106.180298s47.634904-106.180298 106.189508-106.180298c58.546418 0 106.180298 47.634904 106.180298 106.180298S351.773785 742.972744 293.227368 742.972744zM722.196303 58.899714c-89.822748 0-162.89909 73.076342-162.89909 162.89909s73.076342 162.89909 162.89909 162.89909c89.831958 0 162.9083-73.076342 162.9083-162.89909S812.028261 58.899714 722.196303 58.899714zM722.196303 327.980125c-58.546418 0-106.180298-47.634904-106.180298-106.180298 0-58.546418 47.634904-106.180298 106.180298-106.180298 58.555627 0 106.189508 47.634904 106.189508 106.180298C828.38581 280.345222 780.75193 327.980125 722.196303 327.980125zM725.704197 473.892333c-89.822748 0-162.89909 73.076342-162.89909 162.89909S635.881448 799.690514 725.704197 799.690514s162.89909-73.076342 162.89909-162.89909S815.526945 473.892333 725.704197 473.892333zM725.704197 742.972744c-58.546418 0-106.180298-47.634904-106.180298-106.180298s47.634904-106.180298 106.180298-106.180298c58.546418 0 106.180298 47.634904 106.180298 106.180298S784.250614 742.972744 725.704197 742.972744zM293.227368 58.899714c-89.831958 0-162.9083 73.076342-162.9083 162.89909s73.076342 162.89909 162.9083 162.89909c89.822748 0 162.89909-73.076342 162.89909-162.89909S383.050116 58.899714 293.227368 58.899714zM293.227368 327.980125c-58.555627 0-106.189508-47.634904-106.189508-106.180298 0-58.546418 47.634904-106.180298 106.189508-106.180298 58.546418 0 106.180298 47.634904 106.180298 106.180298C399.407666 280.345222 351.773785 327.980125 293.227368 327.980125zM617.926518 278.056086c-7.256264 0-14.511505 2.769067-20.050662 8.308223L375.86753 508.363426c-11.07729 11.078313-11.07729 29.024034 0 40.101323 11.078313 11.078313 29.024034 11.078313 40.101323 0L637.977179 326.465632c11.078313-11.078313 11.078313-29.024034 0-40.101323C632.438023 280.825153 625.182782 278.056086 617.926518 278.056086zM395.918191 278.056086c-7.256264 0-14.511505 2.769067-20.050662 8.308223-11.07729 11.078313-11.07729 29.024034 0 40.101323l222.008326 221.999117c11.078313 11.078313 29.024034 11.078313 40.101323 0s11.078313-29.024034 0-40.101323L415.968853 286.364309C410.43072 280.825153 403.174456 278.056086 395.918191 278.056086z"  horiz-adv-x="1024" />

    
    <glyph glyph-name="fenleixuanzhong0301" unicode="&#58896;" d="M728.053 491.395c-16.437-0.29-32.833-0.758-48.896 4.235-44.349 13.786-73.71 56.098-70.897 102.735 2.751 45.622 36.937 84.164 82.023 92.509 6.3 1.166 12.636 1.951 19.046 1.752 18.97-0.589 38.035 1.622 56.91-1.83 42.535-7.783 76.070-43.738 80.887-86.694 6.098-54.393-29.627-102.084-83.672-111.65-2.827-0.5-5.699-0.967-8.558-1.008-8.945-0.129-17.894-0.047-26.841-0.047zM728.032 447.032c16.441 0.094 32.84 0.568 48.899-4.438 44.39-13.838 73.637-56.006 70.887-102.743-2.679-45.549-36.91-84.131-82.033-92.497-5.983-1.109-12.001-1.923-18.086-1.739-19.291 0.579-38.678-1.674-57.868 1.826-42.52 7.757-76.087 43.767-80.876 86.696-6.070 54.434 29.634 102.112 83.681 111.639 11.724 2.068 23.591 1.060 35.396 1.256zM728.016 0.205c-16.438-0.292-32.834-0.751-48.895 4.248-44.343 13.801-73.709 56.156-70.859 102.762 2.792 45.653 36.936 84.12 82.058 92.477 6.141 1.138 12.317 1.938 18.566 1.744 19.131-0.592 38.357 1.645 57.389-1.837 42.525-7.778 76.002-43.707 80.852-86.724 6.127-54.326-29.698-102.113-83.711-111.62-2.828-0.498-5.7-0.963-8.559-1.004-8.946-0.128-17.894-0.047-26.841-0.047zM609.688 741.008c0.147-9.619-5.854-19.014-15.19-22.348-18.303-6.536-36.672-12.917-55.179-18.846-12.441-3.985-25.36 3.184-29.422 15.501-3.996 12.114 1.951 25.349 14.107 29.719 18.286 6.574 36.668 12.924 55.214 18.713 15.153 4.729 30.226-6.887 30.47-22.738zM476.687 359.609c0 69.86-0.024 139.719 0.023 209.579 0.008 12.039-1.284 23.9-3.939 35.633-17.702 78.22-97.903 128.927-176.153 111.355-69.489-15.604-117.298-75.228-117.316-146.472-0.036-140.039 0-280.078-0.035-420.117-0.002-8.82 0.673-17.574 2.152-26.242 16.125-94.548 117.377-149.954 205.334-110.904 57.943 25.723 88.514 72.207 89.646 135.676 1.256 70.477 0.287 140.993 0.288 211.493zM367.34 301.422c0.040 14.045 10.365 24.676 23.838 24.733 13.508 0.058 23.974-10.507 24.091-24.474 0.092-10.859 0.019-21.722 0.019-32.583 0-10.86 0.071-21.723-0.018-32.583-0.114-13.969-10.569-24.543-24.071-24.494-13.472 0.048-23.817 10.68-23.859 24.713-0.066 21.563-0.064 43.124 0 64.686zM414.713 121.585c-2.772-12.067-13.601-20.005-25.746-18.852-12.018 1.14-21.365 11.214-21.612 23.487-0.138 6.859-0.146 13.725 0.005 20.584 0.29 13.192 10.982 23.467 24.138 23.364 12.964-0.1 23.408-10.295 23.769-23.264 0.097-3.507 0.015-7.021 0.015-11.439-0.288-4.017 0.555-8.983-0.57-13.879z"  horiz-adv-x="1024" />

    
    <glyph glyph-name="fangdajing" unicode="&#58919;" d="M939.904756-9.321487 685.013561 245.569707c27.446389 29.671163 49.319585 63.491009 65.076186 100.738071 18.178883 42.974782 27.396244 88.604147 27.396244 135.620159 0 47.020105-9.217361 92.652541-27.395221 135.630393-17.550543 41.493987-42.668799 78.751283-74.656838 110.737276-31.98804 31.985993-69.247382 57.103225-110.743416 74.653768-42.979899 18.17786-88.617451 27.394198-135.64165 27.394198-47.020105 0-92.652541-9.217361-135.629369-27.395221-41.492963-17.54952-78.750259-42.666752-110.736252-74.653768s-57.103225-69.244312-74.653768-110.737276c-18.17786-42.977852-27.395221-88.609264-27.395221-135.629369 0-47.016012 9.217361-92.644354 27.395221-135.619136 17.550543-41.490917 42.666752-78.746166 74.653768-110.731135s69.243289-57.101178 110.736252-74.649675c42.977852-18.17786 88.610288-27.395221 135.629369-27.395221 47.025222 0 92.660728 9.216338 135.64165 27.394198 23.60062 9.980784 45.823803 22.416598 66.493533 37.164171l258.067689-258.067689c6.994633-6.99361 16.160827-10.490415 25.32702-10.490415s18.332387 3.496805 25.32702 10.490415C953.891976-45.987284 953.891976-23.309731 939.904756-9.321487zM429.047844 205.168664c-152.617067 0-276.779741 124.153463-276.779741 276.760297 0 152.617067 124.162674 276.780764 276.779741 276.780764 152.629348 0 276.802255-124.163697 276.802255-276.780764C705.850098 329.322127 581.677191 205.168664 429.047844 205.168664z"  horiz-adv-x="1024" />

    
    <glyph glyph-name="mima" unicode="&#58883;" d="M512 325.504a58.496 58.496 0 0 1-38.976-102.08v-53.888a38.976 38.976 0 1 1 77.952 0v53.888a58.304 58.304 0 0 1 19.456 43.584A58.368 58.368 0 0 1 512 325.504z m272.896 175.424h-38.976V598.4a233.856 233.856 0 0 1-467.712 0v-97.408h-39.04c-53.824 0-97.408-43.648-97.408-97.408v-370.304c0-53.824 43.648-97.408 97.408-97.408h545.728c53.76 0 97.344 43.648 97.344 97.408V403.52c0 53.824-43.584 97.408-97.344 97.408zM512 793.28a194.88 194.88 0 0 0 194.88-194.88v-97.408h-389.76V598.4A194.944 194.944 0 0 0 512 793.28z m331.392-760.064c0-32.32-26.24-58.432-58.496-58.432H239.168a58.496 58.496 0 0 0-58.496 58.432V403.52c0 32.256 26.176 58.496 58.496 58.496h545.728c32.256 0 58.496-26.176 58.496-58.496v-370.304z m0 0"  horiz-adv-x="1024" />

    
    <glyph glyph-name="jinri" unicode="&#58905;" d="M704 696.32h28.16c25.6 0 46.08 20.48 46.08 43.52V826.88c0 25.6-20.48 43.52-46.08 43.52h-28.16c-25.6 0-43.52-20.48-43.52-43.52v-87.04c-2.56-25.6 17.92-43.52 43.52-43.52z m268.8-25.6v102.4c0 20.48-17.92 38.4-38.4 38.4h-84.48-46.08v-56.32c0-51.2-40.96-92.16-92.16-92.16h-5.12c-51.2 0-92.16 40.96-92.16 92.16V811.52h-171.52v-56.32c0-51.2-40.96-92.16-92.16-92.16h-5.12c-51.2 0-92.16 40.96-92.16 92.16V811.52H179.2h10.24-99.84C69.12 811.52 51.2 793.6 51.2 773.12v-844.8c0-20.48 17.92-38.4 38.4-38.4H184.32h-12.8H844.8h-15.36 97.28c20.48 0 38.4 17.92 38.4 38.4V663.04c7.68 2.56 7.68 5.12 7.68 7.68z m-58.88-663.04c0-53.76-5.12-58.88-58.88-58.88H168.96c-53.76 0-58.88 5.12-58.88 58.88V576h803.84v-568.32zM332.8 696.32h28.16c25.6 0 46.08 20.48 46.08 43.52V826.88c0 25.6-20.48 43.52-46.08 43.52H332.8c-25.6 0-46.08-20.48-46.08-43.52v-87.04c0-25.6 20.48-43.52 46.08-43.52zM302.08 256h391.68c-12.8-25.6-25.6-48.64-43.52-71.68-15.36-20.48-33.28-38.4-53.76-56.32-20.48-15.36-40.96-30.72-64-43.52-17.92-10.24-35.84-17.92-56.32-25.6-10.24-2.56-12.8-12.8-10.24-23.04 2.56-5.12 5.12-7.68 10.24-10.24 5.12-2.56 10.24-2.56 15.36 0 23.04 7.68 46.08 20.48 69.12 33.28 28.16 15.36 51.2 35.84 76.8 56.32 23.04 23.04 43.52 48.64 64 76.8 15.36 23.04 28.16 48.64 38.4 76.8 5.12 12.8-5.12 25.6-17.92 25.6H537.6v66.56c0 10.24-7.68 17.92-17.92 17.92-10.24 0-17.92-7.68-17.92-17.92v-66.56h-199.68c-10.24 0-17.92-7.68-17.92-17.92v-2.56c-2.56-10.24 7.68-17.92 17.92-17.92z m17.92 102.4l74.24 76.8 12.8 12.8c10.24 7.68 17.92 12.8 30.72 15.36 5.12 2.56 12.8 2.56 23.04 2.56h122.88c7.68 0 15.36 0 23.04-2.56 5.12 0 12.8-2.56 17.92-5.12 10.24-5.12 17.92-12.8 25.6-20.48l71.68-76.8c7.68-7.68 17.92-7.68 25.6 0 5.12 5.12 5.12 7.68 5.12 12.8s-2.56 7.68-5.12 12.8L675.84 460.8l-17.92 17.92c-5.12 5.12-12.8 7.68-20.48 12.8-15.36 7.68-35.84 10.24-56.32 10.24h-122.88c-20.48 0-38.4-2.56-56.32-10.24-7.68-5.12-12.8-7.68-20.48-12.8l-17.92-17.92-71.68-76.8c-5.12-5.12-5.12-7.68-5.12-12.8s2.56-10.24 5.12-12.8c7.68-7.68 20.48-7.68 28.16 0z"  horiz-adv-x="1024" />

    
    <glyph glyph-name="qianbao" unicode="&#58887;" d="M959.104 43.327v-0.005c0-58.886-47.734-106.62-106.615-106.62l-0.005-0.006H170.09c-0.005 0-0.005 0.006-0.01 0.006-58.88 0-106.615 47.734-106.615 106.624V683.068c0 47.108 38.189 85.297 85.303 85.297h344.83l87.397 62.575c10.956 3.976 23.066-1.656 27.052-12.573l18.181-50h162.287c47.104 0 85.293-38.19 85.293-85.303v-63.972h0.005c47.108 0 85.297-38.188 85.297-85.301l-0.006-490.464z m-810.336 682.39h-0.005c-23.555 0-42.65-40.42-42.65-63.975s19.095-42.65 42.655-42.65h30.817-21.326 4.039c0.274 0.113 0.45 0.343 0.733 0.45l255.506 106.175h-269.77z m449.475-3.85l-22.64 62.354-0.03-21.336-0.005 0.005-75.954-37.173h-0.19L264.008 619.09h385.173l-50.938 102.776z m232.92-38.804c0 23.559-19.1 42.654-42.649 42.654H641.737l52.335-106.625h137.091v63.971z m42.649-106.625H148.768c-0.01 0-0.01 0.01-0.016 0.01-15.616 0-30.05 4.503-42.639 11.826v-544.952c0-35.332 28.646-63.97 63.977-63.97h682.39c35.337 0 63.975 28.64 63.975 63.97V192.6h-85.298c-47.108 0-85.297 38.183-85.297 85.297 0 47.104 38.189 85.298 85.297 85.298h85.298V533.791c0 23.557-19.094 42.647-42.643 42.647z m42.643-341.19v85.298h-85.298c-23.554 0-42.648-19.094-42.648-42.649 0-23.56 19.094-42.649 42.648-42.649h85.298z m-85.298 63.975h42.65v-42.648h-42.65v42.648z m0 0"  horiz-adv-x="1024" />

    
    <glyph glyph-name="zuo" unicode="&#58940;" d="M481.233-8c8.189 0 16.379 3.124 22.628 9.372 12.496 12.497 12.496 32.759 0 45.256L166.488 384l337.373 337.373c12.496 12.497 12.496 32.758 0 45.255-12.498 12.497-32.758 12.497-45.256 0l-360-360c-12.496-12.497-12.496-32.758 0-45.255l360-360c6.249-6.249 14.439-9.373 22.628-9.373z"  horiz-adv-x="1024" />

    
    <glyph glyph-name="xiala" unicode="&#58952;" d="M508.893248 133.068341a65.039498 65.039498 0 0 0-46.420659 19.485839L97.125746 524.995978c-25.143018 25.634319-24.752868 66.816849 0.881451 91.959868 25.648769 25.164693 66.809624 24.745643 91.959867-0.881451l318.933409-325.125238 318.933408 325.125238a65.025048 65.025048 0 0 0 92.841318-91.078417L555.313907 152.55418a65.025048 65.025048 0 0 0-46.420659-19.485839z"  horiz-adv-x="1024" />

    
    <glyph glyph-name="tuichudenglu" unicode="&#58951;" d="M482.464 384V738.464a29.536 29.536 0 0 0 59.072 0V384a29.504 29.504 0 1 0-59.072 0z m344.064 220.256a383.04 383.04 0 0 1-94.208 94.368l-0.096-0.096a29.472 29.472 0 1 1-33.824-48.384c0.128-0.096 0.288-0.096 0.416-0.192 40-28.128 50.976-39.104 79.328-79.584 102.752-146.752 66.976-349.792-79.808-452.544a325.824 325.824 0 0 0-372.736-0.064 323.84 323.84 0 0 0-79.712 79.904c-49.792 71.008-68.896 157.28-53.824 242.72s62.528 159.968 133.664 209.728c0.224 0.16 0.48 0.288 0.672 0.48l-0.16 0.16A29.504 29.504 0 0 1 291.776 698.56c-0.096-0.064-0.128-0.224-0.256-0.256l-0.032 0.032C118.016 576.64 75.904 337.344 197.472 163.744a383.04 383.04 0 0 1 94.208-94.368c128.448-89.952 304.64-95.072 440.544 0.064 173.728 121.664 215.936 361.12 94.304 534.816z"  horiz-adv-x="1024" />

    
    <glyph glyph-name="nicheng" unicode="&#58888;" d="M868.519 450.265L549.715 127.708l-228.24 230.917 318.798 322.548c1.088 1.089 2.17 1.082 3.245 0.01l225-227.65c0.532-0.543 0.65-1.185 0.65-1.638 0-0.445-0.118-1.084-0.65-1.63zM428.094 72.597c-0.168-0.04-0.55 0-0.306-0.256L267.089 234.843c-0.078 0.165-0.102 0.586-0.31 0.244l50.922 79.907 188.904-191.117-78.511-51.28z m-84.957 4.258l-28.832 0.827-57.095 57.765 30.652 31.013 71.924-72.767-16.649-16.838z m378.038 625.127L889.092 532.09c3.81-3.854 3.81-10.372-0.007-14.232l-18.622-18.84-181.98 184.121 18.623 18.843c3.808 3.854 10.26 3.854 14.069 0z m191.368-146.165L744.624 725.711c-16.8 17.01-44.165 17.01-60.968 0l-18.81-19.035c-6.407 5.55-14.395 8.718-22.944 8.718-9.478 0-18.385-3.724-25.07-10.486L274.578 358.625l19.133-19.359-54.813-86.004c-8.226-12.915-6.335-30.854 4.404-41.713l21.111-21.36-54.102-54.742 89.873-90.928 56.299-1.613 26.751 27.06 21.114-21.358c6.256-6.338 14.886-9.627 23.52-9.627 6.192 0 12.391 1.69 17.716 5.18l85.003 55.452 19.128-19.355 342.253 346.28c6.685 6.764 10.365 15.777 10.365 25.373-0.004 8.637-3.134 16.71-8.61 23.187l18.813 19.033c16.81 17.006 16.815 44.678 0.007 61.686z"  horiz-adv-x="1024" />

    
    <glyph glyph-name="right" unicode="&#59065;" d="M798.744 417.28l-512.299 466.773c-7.823 7.72-18.576 12.488-30.443 12.488s-22.619-4.768-30.447-12.493c-7.759-7.743-12.563-18.455-12.563-30.289 0-11.834 4.803-22.546 12.566-30.293l481.409-438.614-481.408-439.040c-7.774-7.743-12.585-18.456-12.585-30.293s4.811-22.551 12.584-30.292c16.855-16.641 44.076-16.641 60.887-0.001l512.299 466.773c8.96 8.96 12.8 20.907 12.203 32.853 0.049 0.766 0.077 1.661 0.077 2.563 0 11.646-4.69 22.197-12.284 29.868z"  horiz-adv-x="1024" />

    
    <glyph glyph-name="yuangong" unicode="&#58984;" d="M433.62304 351.5904c-127.47776 0-231.18848 103.71584-231.18848 231.1936s103.71072 231.18848 231.18848 231.18848 231.1936-103.71072 231.1936-231.18848c0-127.47776-103.71584-231.1936-231.1936-231.1936z m0 413.94688c-100.77184 0-182.75328-81.98144-182.75328-182.75328 0-100.77184 81.98144-182.7584 182.75328-182.7584 100.77184 0 182.75328 81.98656 182.75328 182.7584s-81.98144 182.75328-182.75328 182.75328zM654.72 362.08128a24.2176 24.2176 0 0 0-5.46304 47.81568c83.13344 19.31264 141.19424 92.51328 141.19424 178.01216 0 105.34912-75.776 187.87328-172.51328 187.87328a24.2176 24.2176 0 0 0 0 48.4352c123.89888 0 220.9536-103.79776 220.9536-236.30848 0-108.14976-73.47712-200.75008-178.67264-225.18784-1.8432-0.4352-3.6864-0.64-5.49888-0.64zM432.79872 367.36c-177.52576 0-321.43872-143.90784-321.43872-321.43872 0-2.05824 0.06144-6.18496 0.06144-6.18496S166.4-19.6608 467.20512-18.2784c196.87424-0.0256 287.03744 64.19968 287.03744 64.19968 0 177.53088-143.91296 321.43872-321.44384 321.43872zM456.93952-42.5216c-293.85216 0-357.0432 59.06432-363.28448 65.80224a24.19712 24.19712 0 0 0-6.44608 16.09216s-0.06656 4.37248-0.06656 6.54848c0 190.59712 155.0592 345.65632 345.65632 345.65632s345.66144-155.06432 345.66144-345.65632c0-7.82848-3.7888-15.1808-10.16832-19.72736-3.93728-2.80576-98.76992-68.69504-300.96384-68.69504h-0.00512l-10.38336-0.02048z m-321.29536 94.72c22.19008-12.67712 101.76-46.2848 321.29536-46.2848l10.15296 0.02048c148.93568 0 234.35776 38.21056 262.62016 53.53472-7.10656 157.62432-137.56928 283.66848-296.91904 283.66848-161.78176 0.00512-293.79584-129.93536-297.14944-290.93888zM928.32256 37.05856a24.2176 24.2176 0 0 0-24.2176 24.2176c0 165.87776-147.72736 281.216-249.83552 297.5232a24.2176 24.2176 0 0 0-20.096 27.73504 24.2432 24.2432 0 0 0 27.73504 20.096c118.784-18.97472 290.6368-152.87296 290.6368-345.35424a24.22784 24.22784 0 0 0-24.22272-24.2176z"  horiz-adv-x="1024" />

    
    <glyph glyph-name="icon-yxj-store" unicode="&#58939;" d="M690.176 306.176c-7.68 6.656-20.992 7.168-28.672 0.512-40.96-35.328-93.184-55.808-149.504-55.808-55.808 0-108.544 20.48-149.504 56.32-7.68 6.656-19.456 6.656-27.648 0-58.88-51.2-141.312-70.656-223.744-43.52-3.584 1.024-8.704 2.56-8.704 3.584v-256c0-59.392 45.568-96.256 104.96-96.256h609.792c59.392 0 109.056 36.864 109.056 96.256v256c-87.040-33.792-175.104-14.848-236.032 38.912zM363.52-29.184c0-12.288-10.752-22.016-23.040-22.016s-23.040 9.728-23.040 22.016v261.12c0 12.288 10.752 22.016 23.040 22.016s23.040-9.728 23.040-22.016v-261.12zM1017.856 522.24l-2.048 6.144-135.168 275.968c-14.848 29.696-45.056 49.152-78.336 49.152h-583.168c-33.28 0-64-18.944-78.336-49.152l-133.12-276.48c-0.512-1.536-1.536-4.096-2.048-5.632-4.096-15.36-5.632-28.16-5.632-43.008 0-83.456 53.76-156.672 134.144-178.688 79.872-21.504 154.624 9.216 197.632 65.536 8.192 10.752 25.088 10.752 33.792 0 33.792-44.032 87.040-72.192 146.432-72.192s112.64 28.16 146.432 72.192c8.704 10.752 25.088 11.264 33.792 0 40.448-52.736 108.544-83.456 182.272-69.632 83.456 15.872 153.088 104.448 149.504 189.44-1.024 12.288-3.072 24.064-6.144 36.352z"  horiz-adv-x="1024" />

    
    <glyph glyph-name="wo" unicode="&#58895;" d="M512 254.976c107.52 0 220.16-23.552 336.896-70.144C965.632 138.24 1024 76.8 1024 1.024V-128H0v129.024C0 76.8 58.368 138.24 175.104 184.832 291.84 231.424 404.48 254.976 512 254.976z m0 129.024c-69.632 0-129.536 25.088-179.2 74.752S258.048 568.32 258.048 638.464c0 70.144 25.088 130.56 74.752 181.248C382.464 870.4 442.368 896 512 896c69.632 0 129.536-25.6 179.2-76.288s74.752-111.104 74.752-181.248-25.088-130.048-74.752-179.712c-49.664-49.664-109.568-74.752-179.2-74.752z"  horiz-adv-x="1024" />

    
    <glyph glyph-name="tongji" unicode="&#58995;" d="M5.12 337.92c0-256 204.8-465.92 460.8-465.92s460.8 209.92 460.8 465.92h-460.8V803.84c-256 0-460.8-209.92-460.8-465.92z m1013.76 92.16c0 256-204.8 465.92-460.8 465.92v-465.92h460.8z"  horiz-adv-x="1024" />

    
    <glyph glyph-name="canju" unicode="&#59247;" d="M547.3 361m-310.8 0a310.8 310.8 0 1 1 621.6 0 310.8 310.8 0 1 1-621.6 0ZM547.3 35.2c-87 0-168.8 33.9-230.4 95.4-61.5 61.6-95.4 143.4-95.4 230.4s33.9 168.8 95.4 230.4c61.5 61.5 143.3 95.4 230.4 95.4 87 0 168.8-33.9 230.4-95.4 61.5-61.5 95.4-143.3 95.4-230.4s-33.9-168.8-95.4-230.4c-61.6-61.5-143.4-95.4-230.4-95.4z m0 621.6c-79 0-153.3-30.8-209.2-86.6-55.8-55.9-86.6-130.2-86.6-209.2s30.8-153.3 86.6-209.2 130.1-86.6 209.2-86.6c79 0 153.3 30.8 209.2 86.6 55.9 55.9 86.6 130.1 86.6 209.2 0 79-30.8 153.3-86.6 209.2-55.9 55.8-130.2 86.6-209.2 86.6zM547.3 361m-228.7 0a228.7 228.7 0 1 1 457.4 0 228.7 228.7 0 1 1-457.4 0ZM547.3 117.3c-65.1 0-126.3 25.3-172.3 71.4-46 46-71.4 107.2-71.4 172.3S329 487.3 375 533.3s107.2 71.4 172.3 71.4c65.1 0 126.3-25.3 172.3-71.4S791 426.1 791 361s-25.3-126.3-71.4-172.3c-46-46.1-107.2-71.4-172.3-71.4z m0 457.4c-117.8 0-213.7-95.9-213.7-213.7 0-57.1 22.2-110.7 62.6-151.1 40.4-40.4 94-62.6 151.1-62.6 57.1 0 110.7 22.2 151.1 62.6 40.4 40.4 62.6 94 62.6 151.1 0 117.8-95.9 213.7-213.7 213.7zM954.1 4h-8.2c-13.5 0-24.4 10.9-24.4 24.4v340h57.1v-339.9c0-13.5-11-24.5-24.5-24.5zM954.1-11h-8.2c-21.7 0-39.4 17.7-39.4 39.4v340c0 8.3 6.7 15 15 15h57.1c8.3 0 15-6.7 15-15v-339.9c0-21.8-17.7-39.5-39.5-39.5z m-17.6 364.4v-324.9c0-5.2 4.2-9.4 9.4-9.4h8.2c5.2 0 9.4 4.2 9.4 9.4V353.4h-27zM978.6 296.2h-57.1V765.9c21 0 31.8-2.2 41.7-11 10-8.8 14.3-21.7 17.9-36.6 8.4-34.9 14.6-126.6 14.6-187.3 0-96.8-17.1-234.8-17.1-234.8zM978.6 281.2h-57.1c-8.3 0-15 6.7-15 15V765.9c0 8.3 6.7 15 15 15 22.1 0 37.6-2.4 51.6-14.7 13.9-12.3 18.9-29.3 22.5-44.3 8.9-36.9 15-130.1 15-190.8 0-96.6-17-235.3-17.2-236.7-0.9-7.6-7.2-13.2-14.8-13.2z m-42.1 30h28.7c4.2 36.7 15.4 142.4 15.4 219.9 0 58.9-6.1 150-14.2 183.8-3.2 13.5-6.6 23-13.2 28.9-3.9 3.5-8 5.6-16.8 6.6v-439.2zM191.6 551.2c-8.3 0-15 6.7-15 15v215c0 8.3 6.7 15 15 15s15-6.7 15-15v-215c0-8.3-6.7-15-15-15zM115.5-11.6c-13.5 0-24.4 10.9-24.4 24.4v440H140v-440c0-13.5-11-24.4-24.5-24.4zM115.5-26.6c-21.7 0-39.4 17.7-39.4 39.4v440c0 8.3 6.7 15 15 15H140c8.3 0 15-6.7 15-15v-440c0-21.7-17.7-39.4-39.5-39.4z m-9.4 464.5v-425c0-5.2 4.2-9.4 9.4-9.4s9.4 4.2 9.4 9.4v425h-18.8zM31.5 566.2v-29.3c0-46.2 37.8-84 84.1-84s84.1 37.8 84.1 84v29.3H31.5zM115.5 437.9c-54.6 0-99.1 44.4-99.1 99v29.3c0 8.3 6.7 15 15 15h168.1c8.3 0 15-6.7 15-15v-29.3c0.1-54.6-44.4-99-99-99z m-69 113.3v-14.3c0-38.1 31-69 69.1-69s69.1 31 69.1 69v14.3H46.5zM31.5 551.2c-8.3 0-15 6.7-15 15v215c0 8.3 6.7 15 15 15s15-6.7 15-15v-215c0-8.3-6.8-15-15-15zM84.2 551.2c-8.3 0-15 6.7-15 15v215c0 8.3 6.7 15 15 15s15-6.7 15-15v-215c0-8.3-6.7-15-15-15zM146.8 551.2c-8.3 0-15 6.7-15 15v215c0 8.3 6.7 15 15 15s15-6.7 15-15v-215c0-8.3-6.7-15-15-15z"  horiz-adv-x="1024" />

    
    <glyph glyph-name="yijianfankui" unicode="&#58897;" d="M963.2 488c-13.6 0-24-11.2-24-24v-432c0-27.2-21.6-48.8-48.8-48.8H159.2c-27.2 0-48.8 21.6-48.8 48.8V736.8c0 27.2 21.6 48.8 48.8 48.8h470.4c13.6 0 24 11.2 24 24 0 13.6-11.2 24-24 24H154.4C103.2 833.6 61.6 792 61.6 740.8v-715.2c0-51.2 41.6-92.8 92.8-92.8h740.8c51.2 0 92.8 41.6 92.8 92.8V464c0 12.8-11.2 24-24.8 24zM968 744.8l-44 44c-30.4 30.4-78.4 33.6-105.6 5.6L355.2 331.2 510.4 176l463.2 463.2c28 27.2 25.6 75.2-5.6 105.6z m-116.8-159.2l-344-344-86.4 85.6 345.6 345.6 84.8-87.2z m88 88l-51.2-51.2-85.6 86.4 50.4 50.4c10.4 10.4 28.8 9.6 40-2.4l44-44c12-10.4 12.8-28.8 2.4-39.2zM355.2 329.6l-48-174.4c-2.4-8 0-16 5.6-21.6 5.6-5.6 13.6-8 21.6-5.6l174.4 48-36 36L360 180.8l31.2 113.6-36 35.2z"  horiz-adv-x="1060" />

    
    <glyph glyph-name="guanyuwomen" unicode="&#58923;" d="M960.39 572.7A486.6 486.6 0 1 1 743.9-44.53a40 40 0 1 1-38.17 70.31 407.56 407.56 0 0 0-193.88-49C287.53-23.26 105 159.09 105 383.23c0 224.49 182.49 407.13 406.81 407.13s406.85-182.64 406.85-407.13a406.16 406.16 0 0 0-98.83-265.59 40 40 0 1 1 60.52-52.32 486.94 486.94 0 0 1 80 507.38zM473.1 152q0.1-0.93 0.24-1.86c0-0.22 0.07-0.43 0.11-0.64 0.07-0.41 0.14-0.81 0.22-1.22s0.18-0.83 0.27-1.24c0-0.2 0.09-0.4 0.14-0.6q0.23-0.93 0.51-1.84a39.74 39.74 0 0 1 2.63-6.55l0.12-0.24c0.44-0.85 0.9-1.69 1.4-2.5l0.12-0.19c0.41-0.66 0.84-1.31 1.29-1.94l0.51-0.72c0.45-0.61 0.91-1.22 1.4-1.8 0.23-0.28 0.47-0.54 0.71-0.81s0.63-0.71 1-1.06 0.53-0.57 0.8-0.84q0.76-0.76 1.56-1.49l0.78-0.67q0.63-0.54 1.29-1.06l0.65-0.51q1-0.74 2-1.42l0.43-0.28q1-0.66 2.1-1.27l0.15-0.09q1.24-0.69 2.53-1.29a39.68 39.68 0 0 1 8-2.73l0.32-0.07c0.86-0.19 1.72-0.35 2.6-0.48l0.57-0.07q0.93-0.13 1.88-0.21l1.08-0.08c0.51 0 1 0 1.53-0.06h0.9a39.71 39.71 0 0 1 6 0.47l0.41 0.07c0.48 0.08 1 0.16 1.45 0.26l1.25 0.28 0.59 0.14a39.68 39.68 0 0 1 6.14 2.08l99.73 41.55a40 40 0 1 1-30.77 73.85L552.89 216V511v2.1q0 0.83-0.13 1.67v0.47c0 0.43-0.1 0.85-0.16 1.28s-0.08 0.58-0.13 0.86-0.1 0.56-0.15 0.85-0.16 0.85-0.25 1.28l-0.1 0.45q-0.19 0.82-0.41 1.63v0.17q-0.26 0.93-0.56 1.84v0.07q-0.31 0.93-0.66 1.83l-0.06 0.16q-0.32 0.82-0.68 1.62l-0.17 0.37q-0.3 0.66-0.63 1.31l-0.32 0.62-0.53 1-0.5 0.87-0.41 0.67c-0.23 0.37-0.46 0.73-0.7 1.09l-0.28 0.41q-0.43 0.63-0.89 1.25l-0.16 0.22q-0.51 0.68-1.05 1.34l-0.09 0.11q-0.57 0.69-1.18 1.36l-0.07 0.08q-0.6 0.66-1.24 1.3l-0.13 0.13q-0.6 0.59-1.22 1.16l-0.28 0.25c-0.37 0.33-0.74 0.65-1.11 1l-0.51 0.41-0.93 0.73-0.79 0.58-0.7 0.5c-0.36 0.25-0.72 0.48-1.09 0.72L534 545c-0.45 0.28-0.9 0.55-1.36 0.81l-0.23 0.13q-0.78 0.44-1.58 0.84h-0.07q-0.84 0.42-1.71 0.8-0.86 0.38-1.74 0.72-0.83 0.32-1.68 0.6l-0.18 0.06c-0.51 0.17-1 0.32-1.53 0.47l-0.41 0.12-1.31 0.33-0.7 0.16-1 0.21-1 0.19-0.74 0.11-1.4 0.18h-0.44q-0.85 0.08-1.71 0.13h-4.31c-0.55 0-1.1-0.07-1.65-0.13h-0.48l-1.27-0.16-0.87-0.13-0.84-0.15-1.29-0.25-0.44-0.1q-0.83-0.19-1.64-0.41h-0.16q-0.93-0.26-1.85-0.57l-75.16-25.05A40 40 0 1 1 450.38 448l22.52 7.51v-298.94a39.76 39.76 0 0 1 0.2-4.57z m79.79 469.94a40 40 0 1 1-40-40 40 40 0 0 1 40 39.95z"  horiz-adv-x="1024" />

    
    <glyph glyph-name="iconfont-guifan-fubenzhuanhuan" unicode="&#58884;" d="M33.790594-63.219601V769.714805H221.079164v-41.124629H75.40641V536.386666H951.075107V728.590176H805.408493v41.124629h187.283454l0.00614-832.934406H33.790594z m355.87008 509.434571c-129.835044 0-235.4515-100.80794-235.4515-224.734414s105.617479-224.737484 235.4515-224.737484c81.177857 0 155.589614 39.124066 199.051475 104.649432 23.816428 35.899628 36.403095 77.423347 36.403095 120.088052 0 123.926474-105.617479 224.734414-235.45457 224.734414z m482.474546-130.649595H694.907797v-41.200354h177.228447v41.200354z m0-145.71164H694.907797v-41.200354h177.228447v41.200354z m-482.870565 52.256154v194.950064c0.135076 0 0.260943 0.038886 0.394996 0.038886 113.00882 0 204.950835-87.756693 204.950835-195.618283-0.00307-37.041638-10.906397-73.070202-31.510668-104.229876L389.264655 222.109889z m288.654212 613.103676h75.194586v-210.961736h-75.194586V835.213565z m-277.04685-65.49876h224.743624v-41.121559H400.872017v41.121559zM273.526677 835.213565h75.197656v-210.961736h-75.197656V835.213565z"  horiz-adv-x="1024" />

    
    <glyph glyph-name="gengduopintuan" unicode="&#58894;" d="M122.0352 747.6992c1.152 0 2.28352 0.06656 3.4048 0.2048 29.02528 3.46624 54.6304 5.23264 76.16 5.23264 49.55648 0 66.93888-9.22624 72.89856-14.71488 3.08736-2.85184 5.07904-6.36416 4.89472-13.38368-1.2032-3.57888-10.97216-13.1072-16.256-18.24768-19.94752-19.44064-53.31456-51.97824-37.50912-102.09792 0.22528-0.7168 0.4864-1.34144 0.80896-2.08384 4.34176-13.08672 9.98912-24.39168 17.26976-34.54976 14.90944-20.75136 34.10432-32.88064 53.90336-42.82368a80.6912 80.6912 0 0 1-3.69664-24.18688c0-44.61568 36.26496-80.90624 80.8448-80.90624s80.84992 36.29056 80.84992 80.90624c0 44.61056-36.27008 80.896-80.84992 80.896a80.384 80.384 0 0 1-41.4208-11.45344c-20.3776 9.58976-33.82784 16.94208-43.32032 29.63968-4.61824 6.18496-8.13568 13.22496-10.74688 21.504a31.96416 31.96416 0 0 0-1.32096 6.18496c-1.30048 12.12416 6.85056 21.5296 24.54528 38.77376 15.04256 14.66368 32.08704 31.27808 32.99328 55.424 0.87552 23.55712-6.81984 42.99776-22.8608 57.79968-21.61152 19.93728-58.0352 29.63968-111.29856 29.63968-23.87968 0-50.8928-1.86368-82.58048-5.67296a27.83232 27.83232 0 0 1-18.7648-10.54208 27.8528 27.8528 0 0 1-5.80096-20.73088 28.08832 28.08832 0 0 1 27.8528-24.81152z m239.51872-250.61376a28.11904 28.11904 0 0 1 24.56576 14.42304 28.16 28.16 0 0 1 3.24096 9.33376 24.59648 24.59648 0 0 0 10.00448-19.79392 24.65792 24.65792 0 0 0-24.61184-24.6272 24.65792 24.65792 0 0 0-24.56064 23.08608c3.584-1.57696 7.46496-2.42176 11.36128-2.42176zM933.3504 524.40064l-160.50688 168.87808a81.19808 81.19808 0 0 1-58.60352 25.15456c-9.87136 0-19.57888-1.79712-28.88704-5.34016l-171.2896-65.59232 57.48224-38.25664 133.91872 51.2768a24.35584 24.35584 0 0 0 8.79104 1.63328c6.71232 0 13.19424-2.7904 17.83296-7.65952l160.50688-168.87808a24.51968 24.51968 0 0 0 6.16448-22.41536l-100.85888-443.40224c-2.52416-11.08992-12.58496-19.15904-23.93088-19.15904-1.85344 0-3.70688 0.22528-5.52448 0.63488l-94.42304 21.48352-1.4592-11.52512c-1.42336-11.1104-4.224-21.61152-8.32512-31.18592l-4.97664-11.64288 96.6912-22.00576c5.90336-1.3568 11.96032-2.02752 18.0224-2.02752 37.94944 0 70.33856 25.88672 78.77632 62.94528l100.85376 443.392a80.7424 80.7424 0 0 1-20.25472 73.69216zM606.63296 547.83488L412.85632 676.87424a80.42496 80.42496 0 0 1-44.67712 13.53216 80.384 80.384 0 0 1-44.86656-13.6448l-17.5616-11.73504 3.6352-33.82272 0.37888-1.11104c1.97632-5.83168 4.1728-9.1136 5.632-11.06432l7.58272-10.19904 31.616 21.1456a24.56576 24.56576 0 0 0 13.68064 4.1472c0.39936 0 0.79872-0.0256 1.19808-0.04608a25.16992 25.16992 0 0 0-1.23904-0.03072h0.04608c0.40448 0 0.80896 0.01024 1.21344 0.03072 0.95232-0.04096 1.88928-0.14336 2.816-0.29184l0.32256-4.77184c4.36224 0 7.08608-0.24064 9.35424-1.75104l56.75008-35.23072 0.09728-0.06656 136.6016-90.95168 0.26112 0.37888-0.21504-0.42496a23.3216 23.3216 0 0 0 7.83872-8.73472c1.81248-3.5328 2.7904-7.6032 2.7904-11.76576v-454.71744c0-1.72032-0.22016-3.58912-1.09568-7.1168a28.1088 28.1088 0 0 0-2.05824-5.31968 29.09184 29.09184 0 0 0-2.95936-4.6592c-1.1776-1.52064-2.45248-2.8416-3.7632-3.92704-0.86528-0.72192-1.77664-1.32608-3.57888-2.43712a22.64064 22.64064 0 0 0-2.39616-1.18784c-0.61952-0.256-3.8144-1.23904-3.8144-1.23904-1.64864-0.32256-2.9696-0.49152-4.1984-0.49152H175.55456c-13.26592 0-25.35424 12.56448-25.35424 26.37312V480.5888c0 8.07936 4.24448 15.73888 11.29472 20.46464l61.76256 41.23136-6.16448 8.84224c-5.59104 8.0128-10.69056 17.56672-15.58528 29.18912l-4.9408 11.776-66.3552-44.24704c-22.69696-15.17568-36.23936-40.32-36.23936-67.25632v-454.8352c0-44.81024 37.34528-82.64704 81.58208-82.64704h386.69312c27.66848 0 53.04832 14.72 67.88608 39.36256 6.93248 11.49952 11.01312 24.85248 11.9296 39.552 0.16896 1.23904 0.29184 2.45248 0.29184 3.73248V480.47104c0 27.30496-13.34784 52.49024-35.72224 67.36384z"  horiz-adv-x="1024" />

    
    <glyph glyph-name="credentials_icon" unicode="&#58996;" d="M1053.926 754.789h-798.626c-62.983-0.064-114.023-51.105-114.087-114.082v-513.408c0.064-62.983 51.105-114.023 114.083-114.087h798.632c62.983 0.064 114.024 51.105 114.087 114.082v513.408c-0.064 62.983-51.105 114.023-114.082 114.087zM1110.965 127.298c-0.041-31.491-25.558-57.008-57.045-57.050h-798.62c-31.487 0.047-56.998 25.562-57.038 57.045v513.405c0.040 31.491 25.558 57.008 57.045 57.049h798.62c31.487-0.047 56.998-25.562 57.039-57.045zM946.142 361.41c30.804 26.183 50.735 64.688 50.735 108.152 0 78.633-63.979 142.613-142.613 142.613s-142.601-63.98-142.601-142.613c0-43.464 19.961-81.969 50.766-108.152-63.939-33.32-107.813-100.123-107.813-177.071 0-15.753 12.772-28.524 28.524-28.524 15.753 0 28.524 12.772 28.524 28.524 0 78.633 63.98 142.612 142.612 142.612s142.613-63.979 142.613-142.612c0 0 0 0 0 0 0-15.753 12.772-28.524 28.524-28.524 15.753 0 28.524 12.772 28.524 28.524 0 0 0 0 0 0-0.009 76.948-43.854 143.752-107.795 177.071zM768.702 469.563c0 47.257 38.308 85.563 85.564 85.563s85.563-38.308 85.563-85.563c0-47.257-38.308-85.563-85.563-85.563-47.234 0.052-85.51 38.33-85.563 85.559zM626.087 555.137h-342.264c-15.753 0-28.524-12.772-28.524-28.524s12.772-28.524 28.524-28.524h342.264c15.753 0 28.524 12.772 28.524 28.524s-12.772 28.524-28.524 28.524zM597.563 412.524h-313.74c-15.753 0-28.524-12.772-28.524-28.524s12.772-28.524 28.524-28.524h313.74c15.753 0 28.524 12.772 28.524 28.524s-12.772 28.524-28.524 28.524zM512 269.913h-228.176c-15.753 0-28.524-12.772-28.524-28.524s12.772-28.524 28.524-28.524h228.176c15.753 0 28.524 12.772 28.524 28.524s-12.772 28.524-28.524 28.524z"  horiz-adv-x="1417" />

    
    <glyph glyph-name="shangpinguanliicon" unicode="&#58906;" d="M908.8 733.866667c-19.2 19.2-40.533333 27.733333-66.133333 27.733333h-198.4C635.733333 787.2 618.666667 810.666667 595.2 827.733333 569.6 844.8 544 853.333333 512 853.333333s-57.6-8.533333-83.2-25.6c-23.466667-17.066667-40.533333-40.533333-49.066667-66.133333H181.333333c-25.6 0-46.933333-8.533333-66.133333-27.733333-19.2-19.2-29.866667-40.533333-29.866667-64v-640c0-23.466667 10.666667-44.8 29.866667-64 19.2-19.2 40.533333-27.733333 66.133333-27.733334h661.333334c25.6 0 46.933333 8.533333 66.133333 27.733334 19.2 19.2 29.866667 40.533333 29.866667 64v640c0 23.466667-10.666667 44.8-29.866667 64z m-430.933333 14.933333c10.666667 8.533333 21.333333 12.8 34.133333 12.8s23.466667-4.266667 34.133333-12.8c8.533333-8.533333 12.8-19.2 12.8-32s-4.266667-25.6-12.8-34.133333c-10.666667-10.666667-19.2-14.933333-34.133333-14.933334s-25.6 6.4-34.133333 14.933334c-8.533333 10.666667-12.8 21.333333-12.8 34.133333 0 12.8 4.266667 23.466667 12.8 32z m42.666666-669.866667h-198.4c-23.466667 0-42.666667 19.2-42.666666 42.666667s19.2 42.666667 42.666666 42.666667h198.4c23.466667 0 42.666667-19.2 42.666667-42.666667s-19.2-42.666667-42.666667-42.666667z m181.333334 183.466667H322.133333c-23.466667 0-42.666667 19.2-42.666666 42.666667s19.2 42.666667 42.666666 42.666666h379.733334c23.466667 0 42.666667-19.2 42.666666-42.666666s-19.2-42.666667-42.666666-42.666667z m0 226.133333H322.133333c-23.466667 0-42.666667 19.2-42.666666 42.666667s19.2 42.666667 42.666666 42.666667h379.733334c23.466667 0 42.666667-19.2 42.666666-42.666667s-19.2-42.666667-42.666666-42.666667z"  horiz-adv-x="1024" />

    
    <glyph glyph-name="zuixin" unicode="&#58890;" d="M160 768h704A96 96 0 0 0 960 672v-576a96 96 0 0 0-96-96h-704A96 96 0 0 0 64 96v576A96 96 0 0 0 160 768z m321.024-237.056c-3.136 6.4-29.44 45.056-29.44 45.056H377.6l-100.288-384H360.96l68.032 260.672 148.352-257.728h69.76L746.624 576h-82.112L595.584 312.064l-114.624 218.88z"  horiz-adv-x="1024" />

    
    <glyph glyph-name="lishi" unicode="&#58886;" d="M512 0A384 384 0 1 0 512 768a384 384 0 0 0 0-768zM512 704a320 320 0 1 1 0-640A320 320 0 0 1 512 704z m160-448h-192a32 32 0 0 0-32 32v256a32 32 0 0 0 64 0V320h160a32 32 0 0 0 0-64z"  horiz-adv-x="1024" />

    
    <glyph glyph-name="shujubaobiao" unicode="&#58891;" d="M877.226667-128H151.210667c-47.104 0-84.992 38.229333-84.992 84.992V811.008C65.877333 857.770667 104.106667 896 151.210667 896H877.226667c47.104 0 84.992-38.229333 84.992-84.992V-42.666667c0-47.104-38.229333-85.333333-84.992-85.333333zM151.210667 853.333333c-23.552 0-42.666667-19.114667-42.666667-42.666666v-853.674667c0-23.552 19.114667-42.666667 42.666667-42.666667H877.226667c23.552 0 42.666667 19.114667 42.666666 42.666667V811.008c0 23.552-19.114667 42.666667-42.666666 42.666667H151.210667v-0.341334zM754.005333 343.722667c0 11.605333-9.557333 21.162667-21.162666 21.162666H252.245333c-11.605333 0-21.162667-9.557333-21.162666-21.162666 0-11.605333 9.557333-21.162667 21.162666-21.162667h480.597334c11.946667-0.341333 21.162667 9.216 21.162666 21.162667zM252.586667 211.968c-11.605333 0-21.162667-9.557333-21.162667-21.162667 0-11.605333 9.557333-21.162667 21.162667-21.162666h308.224c11.605333 0 21.162667 9.557333 21.162666 21.162666 0 11.605333-9.557333 21.162667-21.162666 21.162667H252.586667zM493.909333 59.392H252.245333c-11.605333 0-21.162667-9.557333-21.162666-21.162667 0-11.605333 9.557333-21.504 21.162666-21.504h241.664c11.605333 0 21.162667 9.557333 21.162667 21.504 0 11.605333-9.557333 21.162667-21.162667 21.162667zM757.418667 738.645333l-204.8-204.8-110.250667 110.250667c-8.533333 8.533333-22.869333 8.533333-31.402667 0l-173.056-173.056c-8.533333-8.533333-8.533333-22.869333 0-31.402667 8.533333-8.533333 22.869333-8.533333 31.402667 0L426.666667 596.992l110.250666-110.250667c8.533333-8.533333 22.869333-8.533333 31.402667 0l220.501333 220.501334c8.533333 8.533333 8.533333 22.869333 0 31.402666-8.874667 8.874667-22.869333 8.874667-31.402666 0z"  horiz-adv-x="1024" />

    
    <glyph glyph-name="shuju" unicode="&#58911;" d="M467.456 833.024s-346.624-46.08-406.016-409.6c0 0 165.376-165.376 421.376-215.552 0 1.024-0.512 2.56-0.512 4.096 0 14.848 12.288 27.136 27.136 27.136s27.136-12.288 27.136-27.136c0-4.608-1.024-8.704-3.072-12.288 85.504-10.752 179.712-8.192 280.064 17.408 0.512-0.512-325.632 170.496-346.112 615.936zM318.464 568.32c-14.848 0-27.136 12.288-27.136 27.136s12.288 27.136 27.136 27.136 27.136-12.288 27.136-27.136-11.776-27.136-27.136-27.136zM509.952 844.288c-254.464 0-460.8-206.336-460.8-460.8s206.336-460.8 460.8-460.8 460.8 206.336 460.8 460.8-206.336 460.8-460.8 460.8z m142.848-56.832h0.512c34.816-11.776 65.536-26.624 92.16-45.056l1.024-0.512v-16.384c0-45.568-4.096-88.576-12.8-130.56l-0.512-1.536-1.536-0.512c-29.184-6.656-49.152-30.72-49.152-59.392 0-17.92 6.656-33.792 18.432-43.008l1.536-1.024-1.024-1.536c-13.824-31.744-29.184-67.584-51.2-100.864l-2.048-2.56-2.048 2.56c-81.92 93.184-135.168 207.36-154.112 330.24l-0.512 1.536 1.536 1.024c51.2 30.72 104.448 53.76 158.208 68.608l1.536-1.024zM771.584 532.48c0-14.848-12.288-27.136-27.136-27.136s-27.136 12.288-27.136 27.136 12.288 27.136 27.136 27.136 27.136-12.288 27.136-27.136z m-202.24-305.664l-1.024 1.536 1.536 1.536c26.112 24.576 53.248 54.272 82.432 91.136l1.536 2.048 2.048-2.048c41.472-38.912 81.408-69.632 123.392-93.184l6.144-3.584-6.656-1.536c-44.544-8.704-91.136-12.8-141.312-12.8-10.752 0-21.504 0.512-32.256 1.024-10.24 0.512-20.992 1.024-31.744 1.024h-2.56v3.072c0.512 4.096 0.512 8.192-1.536 11.776zM486.4 809.984l1.536 0.512c6.656 2.048 15.36 2.048 22.016 2.048 23.552 0 47.616-2.048 71.168-6.144l8.704-1.536-15.872-6.656c-26.624-11.776-54.784-23.552-81.408-36.864l-3.072-1.536-0.512 3.584C486.4 778.24 486.4 793.6 486.4 807.936v2.048z m-28.16-116.736l0.512-4.096c23.04-124.416 80.896-240.64 167.936-335.872l1.536-1.536-1.024-1.536c-20.992-28.672-45.568-56.32-76.8-88.064l-1.536-1.536-1.536 1.536c-10.24 8.192-22.016 12.288-36.864 12.288-26.624 0-49.152-15.872-57.344-40.96l-0.512-2.048-2.048 0.512c-90.112 22.528-170.496 55.296-239.104 98.304l-1.536 1.024 0.512 2.048c18.944 71.68 50.176 139.264 92.16 201.728l0.512 1.024h1.536c2.048 0 4.096-0.512 6.656-1.024s5.12-1.024 8.192-1.024c34.816 0 61.44 26.624 61.44 61.44 0 8.192-2.048 15.36-3.584 23.552l-0.512 2.56 1.024 1.024c23.552 23.552 48.64 45.056 79.36 68.096l1.024 2.56z m78.848-481.792c0-14.848-12.288-27.136-27.136-27.136s-27.136 12.288-27.136 27.136 12.288 27.136 27.136 27.136c14.848 0.512 27.136-11.776 27.136-27.136z m-245.76 384c0 14.848 12.288 27.136 27.136 27.136s27.136-12.288 27.136-27.136-11.776-27.136-27.136-27.136c-14.848 0-27.136 12.288-27.136 27.136z m-126.464-281.088c-9.728-53.76-14.848-101.376-14.848-144.384v-19.968l-4.608 7.68c-40.96 68.096-62.464 140.8-64.512 216.576v5.632l4.608-3.584c25.6-21.504 50.688-42.496 78.336-59.904l1.536-1.024-0.512-1.024z m12.288 43.008l-1.024-3.584-3.072 2.048c-30.208 20.48-57.856 43.008-88.064 70.144l-1.024 1.024v1.536c21.504 192.512 170.496 347.648 362.496 377.344l3.072 0.512v-3.072c0-22.016 2.048-42.496 3.584-64l0.512-5.632-1.024-1.024C415.744 706.56 381.44 678.912 350.72 649.728l-1.536-1.536-1.024 2.048c-9.728 5.632-19.968 8.192-30.72 8.192-34.816 0-61.44-26.624-61.44-61.44 0-12.288 4.096-24.064 14.336-38.912l1.024-1.536-1.024-1.536c-43.52-61.44-74.752-128-93.184-197.632z m22.528-268.8l-1.024 0.512c-2.56 1.536-3.584 3.072-4.608 4.608-0.512 1.024-1.024 1.536-2.048 2.048l-1.024 0.512v1.024c-2.048 23.04-4.096 47.104-4.096 72.704 0 41.984 4.096 82.432 12.8 119.808l1.024 3.584 3.072-1.536c78.848-46.08 161.792-79.36 246.784-97.792l2.048-0.512V190.464s0.512-1.024 1.536-1.536l2.048-2.048-2.56-1.536c-73.728-48.64-158.72-80.896-252.928-96.768H199.68z m684.032 84.992c-75.776-135.168-219.136-219.136-373.76-219.136-100.352 0-195.584 34.816-274.432 100.864l-4.096 3.584 5.12 1.024c87.04 16.384 168.448 50.176 242.176 99.84l1.536 1.024 1.536-1.024c7.68-5.12 17.408-8.192 28.16-8.192 18.432 0 35.328 8.192 49.152 24.576l1.024 1.024h1.536c25.088-2.048 51.2-4.096 76.8-4.096 64.512 0 129.536 7.68 198.144 23.552h1.024l0.512-0.512 16.896-7.68c9.216-4.608 18.432-8.704 28.16-11.776l3.072-1.024-2.56-2.048z m36.352 89.088l-1.024-0.512c-25.6-11.264-50.688-19.968-77.824-25.6h-1.024l-1.024 0.512c-57.856 28.672-114.176 69.12-162.816 117.76l-1.536 1.536 1.024 1.536c25.088 38.912 45.056 80.896 59.904 112.64l0.512 1.536h8.192c34.816 0 61.44 26.624 61.44 61.44 0 23.552-13.312 44.544-34.816 54.784l-2.048 1.024 0.512 2.048c8.704 37.888 12.8 75.776 12.8 116.736v5.632l4.096-3.584C882.176 627.712 936.96 508.928 936.96 384c0-38.4-5.632-76.288-16.896-119.808v-1.536z"  horiz-adv-x="1024" />

    
    <glyph glyph-name="tianjia1" unicode="&#59089;" d="M455.111111 782.222222h56.888889v-853.333333H455.111111zM56.888889 384h853.333333v-56.888889H56.888889z"  horiz-adv-x="1024" />

    
    <glyph glyph-name="canju1" unicode="&#58882;" d="M934.4-6.4c0-25.6-6.4-51.2-25.6-64-12.8-19.2-38.4-32-64-32s-44.8 12.8-64 32c-12.8 19.2-25.6 38.4-25.6 64l19.2 294.4c0 19.2 6.4 38.4 19.2 51.2 0 6.4 6.4 6.4 6.4 6.4V505.6c-25.6 6.4-51.2 25.6-76.8 51.2-25.6 32-44.8 76.8-44.8 128s19.2 96 44.8 128c32 32 70.4 57.6 115.2 57.6s83.2-19.2 115.2-57.6c25.6-32 44.8-76.8 44.8-128s-19.2-96-44.8-128c-19.2-25.6-44.8-44.8-76.8-51.2v-147.2c6.4 0 6.4-6.4 12.8-6.4 12.8-12.8 19.2-32 19.2-51.2l25.6-307.2zM505.6 531.2v-179.2l6.4-6.4c12.8-12.8 19.2-32 19.2-51.2l19.2-294.4c0-25.6-6.4-51.2-25.6-64-12.8-19.2-38.4-32-64-32s-44.8 12.8-64 32c-12.8 19.2-25.6 38.4-25.6 64l19.2 294.4c0 19.2 6.4 38.4 19.2 51.2 0 6.4 6.4 6.4 12.8 6.4V531.2h-6.4c-19.2 0-32 6.4-44.8 19.2-19.2 12.8-25.6 32-25.6 44.8V812.8c0 12.8 12.8 19.2 25.6 19.2s25.6-6.4 25.6-19.2v-211.2c0-6.4 0-12.8 6.4-12.8 0 0 6.4-6.4 12.8-6.4V812.8c-6.4 12.8 6.4 19.2 19.2 19.2 12.8 0 25.6-6.4 25.6-19.2V576h12.8V812.8c0 12.8 12.8 19.2 25.6 19.2s25.6-6.4 25.6-19.2V576c6.4 0 6.4 0 12.8 6.4s6.4 6.4 6.4 12.8V812.8c-6.4 12.8 6.4 19.2 19.2 19.2 12.8 0 25.6-6.4 25.6-19.2v-211.2c0-19.2-6.4-32-19.2-44.8-12.8-19.2-32-25.6-51.2-25.6h-12.8z m-307.2-192c6.4-12.8 12.8-25.6 12.8-38.4v-332.8c0-19.2-6.4-38.4-19.2-44.8-12.8-12.8-25.6-19.2-44.8-19.2h-57.6c-19.2 0-38.4 6.4-44.8 19.2-12.8 12.8-19.2 32-19.2 44.8v6.4V672C25.6 729.6 102.4 857.6 102.4 857.6c0 12.8 12.8 12.8 25.6 6.4l6.4-6.4s96-121.6 96-224v-262.4c0-6.4-6.4-12.8-12.8-19.2l-19.2-12.8zM64 364.8h96l19.2 19.2V633.6c0 57.6-38.4 128-64 166.4C96 768 64 704 64 672v-307.2z m857.6 416c-19.2 25.6-44.8 38.4-76.8 38.4s-57.6-12.8-76.8-38.4c-19.2-25.6-32-57.6-32-102.4 0-38.4 12.8-76.8 32-102.4 19.2-25.6 44.8-38.4 76.8-38.4s57.6 12.8 76.8 38.4c25.6 32 38.4 70.4 38.4 108.8 0 38.4-12.8 70.4-38.4 96zM492.8-38.4c6.4 6.4 12.8 19.2 12.8 38.4l-19.2 288c0 6.4 0 19.2-6.4 19.2-6.4 12.8-6.4 12.8-12.8 12.8s-12.8 0-12.8-6.4c-6.4-6.4-6.4-12.8-6.4-19.2L428.8 0c0-12.8 6.4-25.6 12.8-38.4 6.4-6.4 19.2-12.8 25.6-12.8 12.8 0 19.2 0 25.6 12.8zM448 294.4z m422.4-332.8c6.4 6.4 12.8 19.2 12.8 38.4l-19.2 294.4c0 6.4 0 19.2-6.4 19.2 0 6.4-6.4 6.4-12.8 6.4s-6.4 0-12.8-6.4-6.4-12.8-6.4-19.2l-19.2-294.4c0-12.8 6.4-25.6 12.8-38.4 6.4-6.4 19.2-12.8 25.6-12.8 12.8 0 19.2 0 25.6 12.8zM134.4 288h-38.4v-313.6h38.4V288z"  horiz-adv-x="1024" />

    
    <glyph glyph-name="xiaoxi" unicode="&#58985;" d="M512 776c11.5 0 22.5-3.5 31.9-10.1 9.3-6.6 16.3-15.7 20.3-26.3l9.4-25.2 25.6-8.4c27.7-9.1 53.7-22.4 77.3-39.6 23.4-17 44-37.4 61.1-60.7C773.2 557.5 792 500.2 792 440v-241l9.4-14.1 54-80.9H630.2L617 66.8c-7.7-21.7-21.6-40.3-40.2-53.8-19-13.8-41.4-21-64.8-21s-45.8 7.2-64.7 20.9c-18.6 13.5-32.5 32.1-40.2 53.8L393.8 104H168.6l54 80.9L232 199V440c0 60.2 18.8 117.5 54.4 165.7 17.2 23.3 37.7 43.7 61.1 60.7 23.7 17.2 49.7 30.5 77.3 39.6l25.6 8.4 9.4 25.2c4 10.7 11 19.8 20.3 26.3 9.4 6.6 20.4 10.1 31.9 10.1m0 56c-48 0-88.6-30.4-104.6-72.8C273.1 715.2 176 589 176 440v-224l-54-80.9c-24.8-37.2 1.9-87.1 46.6-87.1h185.7C377.4-17.1 439-64 512-64s134.6 46.9 157.7 112h185.7c44.7 0 71.4 49.8 46.6 87.1L848 216V440c0 149-97.1 275.2-231.4 319.2C600.6 801.6 560 832 512 832zM680 104H344v-56h336v56z"  horiz-adv-x="1024" />

    
    <glyph glyph-name="left" unicode="&#58949;" d="M388.057173 802.410667L21.486507 435.84a73.28 73.28 0 0 1 0-103.658667L388.057173-34.410667a73.258667 73.258667 0 0 1 103.658667 0 73.258667 73.258667 0 0 1 0 103.658667L250.286507 310.656h702.826666c40.490667 0 73.301333 32.832 73.301334 73.344s-32.789333 73.322667-73.301334 73.322667H250.286507L491.737173 698.752a73.301333 73.301333 0 1 1-103.68 103.658667z m0 0"  horiz-adv-x="1026" />

    
    <glyph glyph-name="chakanbaobiaoshuju" unicode="&#58902;" d="M722.9375 41.2265625a26.3671875 26.3671875 0 0 0-26.3671875-26.3671875H169.2265625a26.3671875 26.3671875 0 0 0-26.3671875 26.3671875V726.7734375a26.3671875 26.3671875 0 0 0 26.3671875 26.3671875h527.34375a26.3671875 26.3671875 0 0 0 26.3671875-26.3671875v-158.203125l52.734375-26.3671875V726.7734375a79.1015625 79.1015625 0 0 1-79.1015625 79.1015625H169.2265625A79.1015625 79.1015625 0 0 1 90.125 726.7734375v-685.546875a79.1015625 79.1015625 0 0 1 79.1015625-79.1015625h527.34375a79.1015625 79.1015625 0 0 1 79.1015625 79.1015625h-52.734375zM617.46875 120.328125a158.203125 158.203125 0 1 1 0 316.40625 158.203125 158.203125 0 0 1 0-316.40625z m0-52.734375a210.9375 210.9375 0 1 0 0 421.875 210.9375 210.9375 0 0 0 0-421.875zM760.2388305664062 173.05014038085938l149.1558837890625-149.1558837890625-37.289794921875-37.28814697265625-149.1558837890625 149.1558837890625 37.289794921875 37.28814697265625zM195.59375 436.734375h210.9375v-52.734375H195.59375v52.734375zM195.59375 278.53125h158.203125v-52.734375H195.59375v52.734375zM195.59375 594.9375h421.875v-52.734375H195.59375v52.734375z"  horiz-adv-x="1024" />

    
    <glyph glyph-name="shuju1" unicode="&#59093;" d="M512 742.4c92.672 0 167.936-70.656 167.936-157.696 0-26.112-6.656-50.688-18.944-72.704l135.68-99.328c16.896 11.264 37.376 17.92 59.392 17.92 57.344 0 103.424-43.52 103.424-97.28s-46.592-97.28-103.424-97.28c-57.344 0-103.424 43.52-103.424 97.28 0 12.288 2.56 23.552 6.656 34.304l-135.68 99.328c-22.528-18.944-50.688-32.256-81.408-37.376v-151.552c60.416-12.8 105.472-64 105.472-124.416 0-70.656-60.928-127.488-136.192-127.488-75.264 0-136.192 57.344-136.192 127.488 0 60.928 45.056 111.616 105.472 124.416V429.568c-30.72 5.12-58.88 18.432-81.408 37.376l-135.68-99.328c4.096-10.752 6.656-22.528 6.656-34.304 0-53.76-46.08-97.28-103.424-97.28s-103.424 43.52-103.424 97.28 46.592 97.28 103.424 97.28c22.016 0 42.496-6.656 59.392-17.92L363.008 512c-11.776 21.504-18.944 46.592-18.944 72.704 0 87.04 75.264 157.696 167.936 157.696z"  horiz-adv-x="1024" />

    
    <glyph glyph-name="lihuoshangjia" unicode="&#58898;" d="M300.72 164.33a29.81 29.81 0 1 1 57.58 15.43L204.85 752.43a29.81 29.81 0 0 1-13.85 18.1L108.73 818a29.81 29.81 0 0 1-29.81-51.62l71.54-41.31zM917.71 209.08L502.26 97.76a29.81 29.81 0 0 1 15.43-57.58L933.13 151.5a29.81 29.81 0 0 1-15.43 57.58zM348.74 130.43a93.56 93.56 0 1 1 114.59-66.16 93.67 93.67 0 0 1-114.59 66.16z m33.09-123.5a34.3 34.3 0 1 0 24.25 42 34.34 34.34 0 0 0-24.25-42zM785.78 793.57l-173.55-46.5-163.75-43.88-173.55-46.5a29.81 29.81 0 0 1-21.08-36.5l125.87-469.76a111.07 111.07 0 0 0 86.91-51.62l471.46 126.33a29.81 29.81 0 0 1 21.08 36.5L822.28 772.49a29.81 29.81 0 0 1-36.5 21.08zM492.7 653.32l106.16 28.45 28.45-106.17-106.16-28.44zM893.87 275L440.6 153.55 319.15 606.82l116 31.07 36.16-135a29.81 29.81 0 0 1 36.5-21.08l163.74 43.87a29.81 29.81 0 0 1 21.08 36.5l-36.16 135 116 31.07z"  horiz-adv-x="1024" />

    
    <glyph glyph-name="yueshuju" unicode="&#58988;" d="M689.8 661.8h140.6v-572.4H185V403.5M840.4 79.4H175V403.5h20v-304.1h625.4V651.8H689.8v20h150.6zM660.5 366.9l85 86.8M653.36 373.896l84.932 86.74 14.29-13.992-84.931-86.74zM660.5 453.7l85-86.8M653.351 446.698l14.29 13.992 84.932-86.74-14.29-13.992zM269.9 193.5l84.9 86.7M262.773 200.433l84.932 86.74 14.29-13.991-84.932-86.74zM269.9 280.2l84.9-86.7M262.79 273.228l14.29 13.992 84.932-86.74-14.29-13.992zM473.7 193.5l68 86.7M465.879 199.627l67.95 86.76 15.745-12.332-67.949-86.76zM473.7 280.2l68-86.7M465.866 273.98l15.746 12.333 67.95-86.76-15.746-12.333zM473.7 366.9l68 86.8M465.845 373.112l67.95 86.76 15.746-12.332-67.95-86.76zM507.7 419l34-52.1M499.347 413.5l16.748 10.932 33.944-52.003-16.748-10.932zM577.1 604.6c0-13 17-26 34-26 21.2 0 34 13 34 26V708.7c0 16.3-12.7 26-34 26-17 0-34-9.8-34-26v-104.1zM611.1 568.6c-22.6 0-44 17.5-44 36V708.7c0 22.5 22.4 36 44 36 26.7 0 44-14.1 44-36v-104.1c0-9.5-4.6-18.9-12.6-25.6-8.2-6.8-19.1-10.4-31.4-10.4z m0 156.1c-14.8 0-24-8.3-24-16v-104.1c0-6 11.2-16 24-16 11.8 0 24 6 24 16V708.7c0 6-3.1 16-24 16zM637.7 661.4h50.9M637.7 671.4h51v-20h-51zM660.5 280.2h84.9v-86.7h-84.9zM755.5 183.5h-105V290.2h104.9v-106.7z m-85 20h64.9v66.7h-64.9v-66.7zM354.8 575.1m-169.8 0a169.8 169.8 0 1 1 339.6 0 169.8 169.8 0 1 1-339.6 0ZM354.8 395.2C255.6 395.2 175 475.9 175 575s80.7 179.8 179.8 179.8S534.6 674.1 534.6 575 454 395.2 354.8 395.2z m0 339.7c-88.1 0-159.8-71.7-159.8-159.8 0-88.1 71.7-159.8 159.8-159.8S514.6 487 514.6 575.1c0.1 88.1-71.6 159.8-159.8 159.8zM236 575.1h118.8M236 585.1h118.9v-20H236zM354.8 679.2v-104.1M344.8 679.2h20v-104.1h-20z"  horiz-adv-x="1024" />

    
    <glyph glyph-name="yizi" unicode="&#58994;" d="M75.52 721.92a21.333333 21.333333 0 0 1-23.04-35.84C57.173333 682.666667 170.666667 606.293333 170.666667 384v-320a21.333333 21.333333 0 0 1 42.666666 0v170.666667h192v-170.666667a21.333333 21.333333 0 0 1 42.666667 0V405.333333H213.333333C205.226667 635.733333 80.853333 718.506667 75.52 721.92zM405.333333 277.333333h-192v85.333334h192v-85.333334zM977.92 715.52a21.333333 21.333333 0 0 1-29.44 6.4c-5.546667-3.413333-129.706667-85.333333-137.173333-316.586667H576v-341.333333a21.333333 21.333333 0 0 1 42.666667 0v170.666667h192v-170.666667a21.333333 21.333333 0 0 1 42.666666 0V384c0 221.866667 113.066667 298.666667 118.186667 302.08a21.333333 21.333333 0 0 1 6.4 29.44zM618.666667 277.333333v85.333334h192v-85.333334h-192zM682.666667 490.666667a64 64 0 0 1 0 128H362.666667a64 64 0 0 1 0-128h128v-426.666667a21.333333 21.333333 0 0 1 42.666666 0V490.666667h149.333334z m-341.333334 64a21.333333 21.333333 0 0 0 21.333334 21.333333h320a21.333333 21.333333 0 0 0 0-42.666667H362.666667a21.333333 21.333333 0 0 0-21.333334 21.333334z"  horiz-adv-x="1024" />

    


  </font>
</defs>
</svg>
